<svg version="1.1" viewBox="0.0 0.0 960.0 720.0" fill="none" stroke="none" stroke-linecap="square" stroke-miterlimit="10" xmlns:xlink="http://www.w3.org/1999/xlink" xmlns="http://www.w3.org/2000/svg"><clipPath id="p.0"><path d="m0 0l960.0 0l0 720.0l-960.0 0l0 -720.0z" clip-rule="nonzero"/></clipPath><g clip-path="url(#p.0)"><path fill="#000000" fill-opacity="0.0" d="m0 0l960.0 0l0 720.0l-960.0 0z" fill-rule="evenodd"/><path fill="#d9ead3" d="m208.2178 311.91187l161.41733 0l0 161.4173l-161.41733 0z" fill-rule="evenodd"/><path stroke="#000000" stroke-width="1.0" stroke-linejoin="round" stroke-linecap="butt" d="m208.2178 311.91187l161.41733 0l0 161.4173l-161.41733 0z" fill-rule="evenodd"/><path fill="#434343" d="m260.60214 392.32303q3.046875 0.96875 4.765625 3.21875q1.71875 2.25 1.71875 5.546875q0 4.65625 -3.625 7.171875q-3.609375 2.5 -10.54689 2.5l-18.34375 0l0 -35.453125l17.328125 0q6.4843903 0 9.95314 2.484375q3.46875 2.46875 3.46875 6.734375q0 2.578125 -1.25 4.609375q-1.234375 2.015625 -3.46875 3.1875zm-17.875015 -10.84375l0 8.359375l8.15625 0q3.046875 0 4.609375 -1.0625q1.5781403 -1.0625 1.5781403 -3.140625q0 -2.078125 -1.5781403 -3.109375q-1.5625 -1.046875 -4.609375 -1.046875l-8.15625 0zm9.578125 23.09375q3.234375 0 4.8750153 -1.0625q1.65625 -1.0625 1.65625 -3.28125q0 -4.40625 -6.5312653 -4.40625l-9.578125 0l0 8.75l9.578125 0zm20.455215 -31.40625l7.90625 0l0 37.59375l-7.90625 0l0 -37.59375zm28.216309 38.0q-4.296875 0 -7.71875 -1.796875q-3.421875 -1.796875 -5.34375 -4.984375q-1.921875 -3.203125 -1.921875 -7.25q0 -4.046875 1.921875 -7.234375q1.921875 -3.203125 5.34375 -5.0q3.421875 -1.796875 7.71875 -1.796875q4.3125 0 7.703125 1.796875q3.390625 1.796875 5.3125 5.0q1.9375 3.1875 1.9375 7.234375q0 4.046875 -1.9375 7.25q-1.921875 3.1875 -5.3125 4.984375q-3.390625 1.796875 -7.703125 1.796875zm0 -6.484375q3.046875 0 5.0 -2.046875q1.953125 -2.0625 1.953125 -5.5q0 -3.453125 -1.953125 -5.5q-1.953125 -2.046875 -5.0 -2.046875q-3.03125 0 -5.015625 2.046875q-1.96875 2.046875 -1.96875 5.5q0 3.4375 1.96875 5.5q1.984375 2.046875 5.015625 2.046875zm33.383026 6.484375q-4.34375 0 -7.828125 -1.796875q-3.46875 -1.796875 -5.421875 -4.984375q-1.9375 -3.203125 -1.9375 -7.25q0 -4.046875 1.9375 -7.234375q1.953125 -3.203125 5.421875 -5.0q3.484375 -1.796875 7.828125 -1.796875q4.3125 0 7.53125 1.796875q3.21875 1.796875 4.6875 5.140625l-6.140625 3.296875q-2.125 -3.75 -6.125 -3.75q-3.09375 0 -5.125 2.03125q-2.015625 2.015625 -2.015625 5.515625q0 3.5 2.015625 5.53125q2.03125 2.015625 5.125 2.015625q4.046875 0 6.125 -3.75l6.140625 3.34375q-1.46875 3.25 -4.6875 5.078125q-3.21875 1.8125 -7.53125 1.8125z" fill-rule="nonzero"/><path fill="#d9ead3" d="m488.75653 48.499706l161.41736 0l0 161.41731l-161.41736 0z" fill-rule="evenodd"/><path stroke="#000000" stroke-width="1.0" stroke-linejoin="round" stroke-linecap="butt" d="m488.75653 48.499706l161.41736 0l0 161.41731l-161.41736 0z" fill-rule="evenodd"/><path fill="#434343" d="m534.13354 129.22836q2.71875 0.859375 4.25 2.875q1.546875 2.015625 1.546875 4.96875q0 4.171875 -3.25 6.421875q-3.234375 2.234375 -9.4375 2.234375l-16.40628 0l0 -31.734375l15.5000305 0q5.796875 0 8.90625 2.234375q3.109375 2.21875 3.109375 6.015625q0 2.3125 -1.109375 4.125q-1.109375 1.8125 -3.109375 2.859375zm-16.0 -9.703125l0 7.484375l7.296875 0q2.71875 0 4.125 -0.953125q1.40625 -0.953125 1.40625 -2.8125q0 -1.859375 -1.40625 -2.78125q-1.40625 -0.9375 -4.125 -0.9375l-7.296875 0zm8.5625 20.671875q2.90625 0 4.375 -0.953125q1.46875 -0.953125 1.46875 -2.9375q0 -3.953125 -5.84375 -3.953125l-8.5625 0l0 7.84375l8.5625 0zm18.81665 -26.203125l7.34375 0l0 25.75l15.90625 0l0 5.984375l-23.25 0l0 -31.734375zm38.306213 32.09375q-3.859375 0 -6.921875 -1.609375q-3.0625 -1.609375 -4.78125 -4.453125q-1.71875 -2.859375 -1.71875 -6.484375q0 -3.625 1.71875 -6.484375q1.71875 -2.859375 4.78125 -4.46875q3.0625 -1.609375 6.921875 -1.609375q3.84375 0 6.875 1.609375q3.046875 1.609375 4.765625 4.46875q1.71875 2.859375 1.71875 6.484375q0 3.625 -1.71875 6.484375q-1.71875 2.84375 -4.765625 4.453125q-3.03125 1.609375 -6.875 1.609375zm0 -5.796875q2.71875 0 4.453125 -1.828125q1.75 -1.84375 1.75 -4.921875q0 -3.09375 -1.75 -4.921875q-1.734375 -1.84375 -4.453125 -1.84375q-2.734375 0 -4.5 1.84375q-1.765625 1.828125 -1.765625 4.921875q0 3.078125 1.765625 4.921875q1.765625 1.828125 4.5 1.828125zm33.768066 5.984375q-4.859375 0 -8.78125 -2.109375q-3.921875 -2.109375 -6.171875 -5.84375q-2.234375 -3.75 -2.234375 -8.453125q0 -4.71875 2.234375 -8.453125q2.25 -3.75 6.171875 -5.859375q3.921875 -2.109375 8.828125 -2.109375q4.125 0 7.453125 1.453125q3.328125 1.453125 5.59375 4.171875l-4.71875 4.359375q-3.21875 -3.71875 -7.96875 -3.71875q-2.953125 0 -5.265625 1.296875q-2.3125 1.28125 -3.609375 3.59375q-1.28125 2.3125 -1.28125 5.265625q0 2.9375 1.28125 5.25q1.296875 2.3125 3.609375 3.609375q2.3125 1.28125 5.265625 1.28125q4.75 0 7.96875 -3.75l4.71875 4.34375q-2.265625 2.765625 -5.625 4.21875q-3.34375 1.453125 -7.46875 1.453125z" fill-rule="nonzero"/><path fill="#000000" fill-opacity="0.0" d="m369.63513 392.6205c99.921265 0 199.84253 -91.35434 199.84253 -182.70866" fill-rule="evenodd"/><path stroke="#000000" stroke-width="8.0" stroke-linejoin="round" stroke-linecap="butt" stroke-dasharray="8.0,24.0" d="m369.63513 392.62054c49.960632 0 99.921265 -22.838593 137.39172 -57.096466c18.73523 -17.128967 34.34796 -37.112732 45.276855 -58.523895c2.7322388 -5.352783 5.171692 -10.7948 7.2940063 -16.30371c0.26531982 -0.68862915 0.52563477 -1.3782654 0.7809448 -2.0689392c0.12768555 -0.3453064 0.2541504 -0.69091797 0.37927246 -1.0367432l0.16052246 -0.4482422" fill-rule="evenodd"/><path fill="#000000" stroke="#000000" stroke-width="8.0" stroke-linecap="butt" d="m573.92053 259.4988l-6.5283203 -38.079178l-19.47583 33.36667z" fill-rule="evenodd"/><path fill="#000000" fill-opacity="0.0" d="m288.92645 311.91187c0 -139.30388 70.13388 -245.68256 140.26773 -278.60776c70.13385 -32.925194 140.26773 7.6030884 140.26773 15.206173" fill-rule="evenodd"/><path stroke="#000000" stroke-width="8.0" stroke-linejoin="round" stroke-linecap="butt" d="m291.74683 263.99478l0.14038086 -1.1690369c0.062316895 -0.51068115 0.12557983 -1.0207825 0.18981934 -1.5303345c2.0546875 -16.304901 5.068268 -32.016205 8.903687 -47.054733c7.6708984 -30.077072 18.629333 -57.463043 31.779419 -81.524704c26.300201 -48.1233 61.367126 -82.94927 96.43405 -99.411865c70.13385 -32.925194 140.26773 7.6030884 140.26773 15.206173" fill-rule="evenodd"/><path fill="#000000" stroke="#000000" stroke-width="8.0" stroke-linecap="butt" d="m278.5558 263.21835l11.057861 37.018494l15.324219 -35.465668z" fill-rule="evenodd"/><path fill="#000000" fill-opacity="0.0" d="m190.21782 127.761154l115.464554 0l0 59.779526l-115.464554 0z" fill-rule="evenodd"/><path fill="#000000" d="m213.62407 162.5424q0 -1.375 -0.984375 -2.109375q-0.96875 -0.75 -3.515625 -1.5625q-2.53125 -0.828125 -4.015625 -1.625q-4.03125 -2.1875 -4.03125 -5.875q0 -1.921875 1.078125 -3.421875q1.078125 -1.515625 3.109375 -2.359375q2.03125 -0.84375 4.546875 -0.84375q2.53125 0 4.515625 0.921875q2.0 0.90625 3.09375 2.59375q1.09375 1.671875 1.09375 3.796875l-4.875 0q0 -1.625 -1.03125 -2.515625q-1.015625 -0.90625 -2.875 -0.90625q-1.796875 0 -2.796875 0.765625q-0.984375 0.75 -0.984375 1.984375q0 1.15625 1.15625 1.9375q1.171875 0.78125 3.4375 1.453125q4.171875 1.265625 6.0625 3.125q1.90625 1.84375 1.90625 4.609375q0 3.078125 -2.328125 4.828125q-2.328125 1.75 -6.265625 1.75q-2.734375 0 -4.984375 -1.0q-2.234375 -1.0 -3.421875 -2.734375q-1.171875 -1.75 -1.171875 -4.046875l4.890625 0q0 3.921875 4.6875 3.921875q1.75 0 2.71875 -0.703125q0.984375 -0.71875 0.984375 -1.984375zm13.519592 -15.71875l0 4.328125l3.015625 0l0 3.453125l-3.015625 0l0 8.78125q0 0.984375 0.375 1.40625q0.375 0.421875 1.4375 0.421875q0.78125 0 1.375 -0.109375l0 3.5625q-1.375 0.421875 -2.84375 0.421875q-4.953125 0 -5.046875 -5.0l0 -9.484375l-2.578125 0l0 -3.453125l2.578125 0l0 -4.328125l4.703125 0zm15.839386 21.9375q-0.328125 -0.640625 -0.484375 -1.578125q-1.703125 1.90625 -4.4375 1.90625q-2.59375 0 -4.296875 -1.5q-1.6875 -1.5 -1.6875 -3.78125q0 -2.796875 2.0625 -4.28125q2.078125 -1.5 6.0 -1.515625l2.171875 0l0 -1.015625q0 -1.21875 -0.625 -1.953125q-0.625 -0.734375 -1.984375 -0.734375q-1.1875 0 -1.859375 0.578125q-0.671875 0.5625 -0.671875 1.5625l-4.703125 0q0 -1.53125 0.9375 -2.828125q0.953125 -1.3125 2.671875 -2.046875q1.71875 -0.75 3.875 -0.75q3.25 0 5.15625 1.640625q1.921875 1.640625 1.921875 4.59375l0 7.640625q0.015625 2.5 0.703125 3.78125l0 0.28125l-4.75 0zm-3.890625 -3.265625q1.03125 0 1.90625 -0.46875q0.890625 -0.46875 1.3125 -1.25l0 -3.015625l-1.765625 0q-3.53125 0 -3.75 2.4375l-0.015625 0.28125q0 0.875 0.609375 1.453125q0.625 0.5625 1.703125 0.5625zm17.180801 -18.671875l0 4.328125l3.015625 0l0 3.453125l-3.015625 0l0 8.78125q0 0.984375 0.375 1.40625q0.375 0.421875 1.4375 0.421875q0.78125 0 1.375 -0.109375l0 3.5625q-1.375 0.421875 -2.84375 0.421875q-4.953125 0 -5.046875 -5.0l0 -9.484375l-2.578125 0l0 -3.453125l2.578125 0l0 -4.328125l4.703125 0zm13.730011 22.265625q-3.875 0 -6.3125 -2.375q-2.421875 -2.375 -2.421875 -6.328125l0 -0.46875q0 -2.640625 1.015625 -4.734375q1.03125 -2.09375 2.90625 -3.21875q1.890625 -1.140625 4.296875 -1.140625q3.609375 0 5.6875 2.28125q2.078125 2.28125 2.078125 6.46875l0 1.90625l-11.21875 0q0.234375 1.734375 1.375 2.78125q1.15625 1.03125 2.90625 1.03125q2.71875 0 4.25 -1.96875l2.3125 2.59375q-1.0625 1.5 -2.875 2.34375q-1.796875 0.828125 -4.0 0.828125zm-0.53125 -14.453125q-1.40625 0 -2.28125 0.953125q-0.859375 0.9375 -1.109375 2.6875l6.546875 0l0 -0.375q-0.03125 -1.5625 -0.84375 -2.40625q-0.8125 -0.859375 -2.3125 -0.859375z" fill-rule="nonzero"/><path fill="#000000" fill-opacity="0.0" d="m384.4907 271.37796l127.46457 0l0 59.77951l-127.46457 0z" fill-rule="evenodd"/><path fill="#000000" d="m409.8657 302.11234l-9.375 0l0 6.34375l11.0 0l0 3.921875l-15.890625 0l0 -23.6875l15.859375 0l0 3.953125l-10.96875 0l0 5.640625l9.375 0l0 3.828125zm10.339508 4.515625l3.28125 -11.859375l4.90625 0l-5.9375 17.609375l-4.484375 0l-5.9375 -17.609375l4.90625 0l3.265625 11.859375zm18.147125 6.078125q-3.875 0 -6.3125 -2.375q-2.421875 -2.375 -2.421875 -6.328125l0 -0.46875q0 -2.640625 1.015625 -4.734375q1.03125 -2.09375 2.90625 -3.21875q1.890625 -1.140625 4.296875 -1.140625q3.609375 0 5.6875 2.28125q2.078125 2.28125 2.078125 6.46875l0 1.90625l-11.21875 0q0.234375 1.734375 1.375 2.78125q1.15625 1.03125 2.90625 1.03125q2.71875 0 4.25 -1.96875l2.3125 2.59375q-1.0625 1.5 -2.875 2.34375q-1.796875 0.828125 -4.0 0.828125zm-0.53125 -14.453125q-1.40625 0 -2.28125 0.953125q-0.859375 0.9375 -1.109375 2.6875l6.546875 0l0 -0.375q-0.03125 -1.5625 -0.84375 -2.40625q-0.8125 -0.859375 -2.3125 -0.859375zm14.7803955 -3.484375l0.140625 2.03125q1.890625 -2.359375 5.0625 -2.359375q2.796875 0 4.15625 1.65625q1.375 1.640625 1.40625 4.90625l0 11.375l-4.703125 0l0 -11.265625q0 -1.5 -0.65625 -2.171875q-0.640625 -0.671875 -2.15625 -0.671875q-1.984375 0 -2.984375 1.6875l0 12.421875l-4.703125 0l0 -17.609375l4.4375 0zm19.962585 -4.328125l0 4.328125l3.015625 0l0 3.453125l-3.015625 0l0 8.78125q0 0.984375 0.375 1.40625q0.375 0.421875 1.4375 0.421875q0.78125 0 1.375 -0.109375l0 3.5625q-1.375 0.421875 -2.84375 0.421875q-4.953125 0 -5.046875 -5.0l0 -9.484375l-2.578125 0l0 -3.453125l2.578125 0l0 -4.328125l4.703125 0z" fill-rule="nonzero"/><path fill="#d9ead3" d="m631.3908 470.80084l161.4173 0l0 161.4173l-161.4173 0z" fill-rule="evenodd"/><path stroke="#000000" stroke-width="1.0" stroke-linejoin="round" stroke-linecap="butt" d="m631.3908 470.80084l161.4173 0l0 161.4173l-161.4173 0z" fill-rule="evenodd"/><path fill="#434343" d="m676.76776 551.5295q2.71875 0.859375 4.25 2.875q1.546875 2.015625 1.546875 4.96875q0 4.171875 -3.25 6.421875q-3.234375 2.234375 -9.4375 2.234375l-16.40625 0l0 -31.734375l15.5 0q5.796875 0 8.90625 2.234375q3.109375 2.21875 3.109375 6.015625q0 2.3125 -1.109375 4.125q-1.109375 1.8125 -3.109375 2.859375zm-16.0 -9.703125l0 7.484375l7.296875 0q2.71875 0 4.125 -0.953125q1.40625 -0.953125 1.40625 -2.8125q0 -1.859375 -1.40625 -2.78125q-1.40625 -0.9375 -4.125 -0.9375l-7.296875 0zm8.5625 20.671875q2.90625 0 4.375 -0.953125q1.46875 -0.953125 1.46875 -2.9375q0 -3.953125 -5.84375 -3.953125l-8.5625 0l0 7.84375l8.5625 0zm18.81665 -26.203125l7.34375 0l0 25.75l15.90625 0l0 5.984375l-23.25 0l0 -31.734375zm38.306274 32.09375q-3.859375 0 -6.921875 -1.609375q-3.0625 -1.609375 -4.78125 -4.453125q-1.71875 -2.859375 -1.71875 -6.484375q0 -3.625 1.71875 -6.484375q1.71875 -2.859375 4.78125 -4.46875q3.0625 -1.609375 6.921875 -1.609375q3.84375 0 6.875 1.609375q3.046875 1.609375 4.765625 4.46875q1.71875 2.859375 1.71875 6.484375q0 3.625 -1.71875 6.484375q-1.71875 2.84375 -4.765625 4.453125q-3.03125 1.609375 -6.875 1.609375zm0 -5.796875q2.71875 0 4.453125 -1.828125q1.75 -1.84375 1.75 -4.921875q0 -3.09375 -1.75 -4.921875q-1.734375 -1.84375 -4.453125 -1.84375q-2.734375 0 -4.5 1.84375q-1.765625 1.828125 -1.765625 4.921875q0 3.078125 1.765625 4.921875q1.765625 1.828125 4.5 1.828125zm33.768066 5.984375q-4.859375 0 -8.78125 -2.109375q-3.921875 -2.109375 -6.171875 -5.84375q-2.234375 -3.75 -2.234375 -8.453125q0 -4.71875 2.234375 -8.453125q2.25 -3.75 6.171875 -5.859375q3.921875 -2.109375 8.828125 -2.109375q4.125 0 7.453125 1.453125q3.328125 1.453125 5.59375 4.171875l-4.71875 4.359375q-3.21875 -3.71875 -7.96875 -3.71875q-2.953125 0 -5.265625 1.296875q-2.3125 1.28125 -3.609375 3.59375q-1.28125 2.3125 -1.28125 5.265625q0 2.9375 1.28125 5.25q1.296875 2.3125 3.609375 3.609375q2.3125 1.28125 5.265625 1.28125q4.75 0 7.96875 -3.75l4.71875 4.34375q-2.265625 2.765625 -5.625 4.21875q-3.34375 1.453125 -7.46875 1.453125z" fill-rule="nonzero"/><path fill="#000000" fill-opacity="0.0" d="m288.92645 473.32916c0 100.335144 105.79529 180.80804 211.59055 200.67023c105.79532 19.862244 211.59055 -20.886292 211.59055 -41.772583" fill-rule="evenodd"/><path stroke="#000000" stroke-width="8.0" stroke-linejoin="round" stroke-linecap="butt" stroke-dasharray="8.0,24.0" d="m288.92648 473.3292c0 100.33511 105.79526 180.80801 211.59055 200.67026c52.897644 9.931091 105.79529 4.7094727 145.46844 -5.605652c4.9591675 -1.2893677 9.711731 -2.6583862 14.2317505 -4.0872803c2.2600708 -0.71447754 4.461975 -1.4439087 6.602539 -2.185852c1.0703125 -0.3710327 2.1252441 -0.7451172 3.1644287 -1.1220703c0.5195923 -0.18847656 1.0352783 -0.37768555 1.5469971 -0.5675049l1.3688354 -0.5136719" fill-rule="evenodd"/><path fill="#000000" stroke="#000000" stroke-width="8.0" stroke-linecap="butt" d="m680.52295 670.7108l22.031677 -31.737183l-37.277527 10.150452z" fill-rule="evenodd"/><path fill="#000000" fill-opacity="0.0" d="m369.63513 392.6205c171.22833 0 342.45667 39.08661 342.45667 78.17322" fill-rule="evenodd"/><path stroke="#000000" stroke-width="8.0" stroke-linejoin="round" stroke-linecap="butt" d="m417.62476 393.61786l0.027282715 0.0010681152c5.303833 0.21829224 10.5920105 0.4711609 15.859283 0.7574768c21.069092 1.1450806 41.803802 2.824585 61.86963 4.9621277c40.131622 4.275116 77.58786 10.382385 109.693085 17.71112c64.21063 14.657501 107.01776 34.200806 107.01776 53.74411" fill-rule="evenodd"/><path fill="#000000" stroke="#000000" stroke-width="8.0" stroke-linecap="butt" d="m417.89932 380.40683l-36.571503 12.456696l36.0224 13.965332z" fill-rule="evenodd"/><path fill="#000000" fill-opacity="0.0" d="m617.62787 362.72964l188.94489 0l0 59.77954l-188.94489 0z" fill-rule="evenodd"/><path fill="#000000" d="m641.0341 397.5109q0 -1.375 -0.984375 -2.109375q-0.96875 -0.75 -3.515625 -1.5625q-2.53125 -0.828125 -4.015625 -1.625q-4.03125 -2.1875 -4.03125 -5.875q0 -1.921875 1.078125 -3.421875q1.078125 -1.515625 3.109375 -2.359375q2.03125 -0.84375 4.546875 -0.84375q2.53125 0 4.515625 0.921875q2.0 0.90625 3.09375 2.59375q1.09375 1.671875 1.09375 3.796875l-4.875 0q0 -1.625 -1.03125 -2.515625q-1.015625 -0.90625 -2.875 -0.90625q-1.796875 0 -2.796875 0.765625q-0.984375 0.75 -0.984375 1.984375q0 1.15625 1.15625 1.9375q1.171875 0.78125 3.4375 1.453125q4.171875 1.265625 6.0625 3.125q1.90625 1.84375 1.90625 4.609375q0 3.078125 -2.328125 4.828125q-2.328125 1.75 -6.265625 1.75q-2.734375 0 -4.984375 -1.0q-2.234375 -1.0 -3.421875 -2.734375q-1.171875 -1.75 -1.171875 -4.046875l4.890625 0q0 3.921875 4.6875 3.921875q1.75 0 2.71875 -0.703125q0.984375 -0.71875 0.984375 -1.984375zm13.519592 -15.71875l0 4.328125l3.015625 0l0 3.453125l-3.015625 0l0 8.78125q0 0.984375 0.375 1.40625q0.375 0.421875 1.4375 0.421875q0.78125 0 1.375 -0.109375l0 3.5625q-1.375 0.421875 -2.84375 0.421875q-4.953125 0 -5.046875 -5.0l0 -9.484375l-2.578125 0l0 -3.453125l2.578125 0l0 -4.328125l4.703125 0zm15.8394165 21.9375q-0.328125 -0.640625 -0.484375 -1.578125q-1.703125 1.90625 -4.4375 1.90625q-2.59375 0 -4.296875 -1.5q-1.6875 -1.5 -1.6875 -3.78125q0 -2.796875 2.0625 -4.28125q2.078125 -1.5 6.0 -1.515625l2.171875 0l0 -1.015625q0 -1.21875 -0.625 -1.953125q-0.625 -0.734375 -1.984375 -0.734375q-1.1875 0 -1.859375 0.578125q-0.671875 0.5625 -0.671875 1.5625l-4.703125 0q0 -1.53125 0.9375 -2.828125q0.953125 -1.3125 2.671875 -2.046875q1.71875 -0.75 3.875 -0.75q3.25 0 5.15625 1.640625q1.921875 1.640625 1.921875 4.59375l0 7.640625q0.015625 2.5 0.703125 3.78125l0 0.28125l-4.75 0zm-3.890625 -3.265625q1.03125 0 1.90625 -0.46875q0.890625 -0.46875 1.3125 -1.25l0 -3.015625l-1.765625 0q-3.53125 0 -3.75 2.4375l-0.015625 0.28125q0 0.875 0.609375 1.453125q0.625 0.5625 1.703125 0.5625zm17.180786 -18.671875l0 4.328125l3.015625 0l0 3.453125l-3.015625 0l0 8.78125q0 0.984375 0.375 1.40625q0.375 0.421875 1.4375 0.421875q0.78125 0 1.375 -0.109375l0 3.5625q-1.375 0.421875 -2.84375 0.421875q-4.953125 0 -5.046875 -5.0l0 -9.484375l-2.578125 0l0 -3.453125l2.578125 0l0 -4.328125l4.703125 0zm13.72998 22.265625q-3.875 0 -6.3125 -2.375q-2.421875 -2.375 -2.421875 -6.328125l0 -0.46875q0 -2.640625 1.015625 -4.734375q1.03125 -2.09375 2.90625 -3.21875q1.890625 -1.140625 4.296875 -1.140625q3.609375 0 5.6875 2.28125q2.078125 2.28125 2.078125 6.46875l0 1.90625l-11.21875 0q0.234375 1.734375 1.375 2.78125q1.15625 1.03125 2.90625 1.03125q2.71875 0 4.25 -1.96875l2.3125 2.59375q-1.0625 1.5 -2.875 2.34375q-1.796875 0.828125 -4.0 0.828125zm-0.53125 -14.453125q-1.40625 0 -2.28125 0.953125q-0.859375 0.9375 -1.109375 2.6875l6.546875 0l0 -0.375q-0.03125 -1.5625 -0.84375 -2.40625q-0.8125 -0.859375 -2.3125 -0.859375z" fill-rule="nonzero"/><path fill="#000000" fill-opacity="0.0" d="m369.63458 653.49603l127.46457 0l0 59.77954l-127.46457 0z" fill-rule="evenodd"/><path fill="#000000" d="m395.00958 684.2304l-9.375 0l0 6.34375l11.0 0l0 3.921875l-15.890625 0l0 -23.6875l15.859375 0l0 3.953125l-10.96875 0l0 5.640625l9.375 0l0 3.828125zm10.339508 4.515625l3.28125 -11.859375l4.90625 0l-5.9375 17.609375l-4.484375 0l-5.9375 -17.609375l4.90625 0l3.265625 11.859375zm18.147125 6.078125q-3.875 0 -6.3125 -2.375q-2.421875 -2.375 -2.421875 -6.328125l0 -0.46875q0 -2.640625 1.015625 -4.734375q1.03125 -2.09375 2.90625 -3.21875q1.890625 -1.140625 4.296875 -1.140625q3.609375 0 5.6875 2.28125q2.078125 2.28125 2.078125 6.46875l0 1.90625l-11.21875 0q0.234375 1.734375 1.375 2.78125q1.15625 1.03125 2.90625 1.03125q2.71875 0 4.25 -1.96875l2.3125 2.59375q-1.0625 1.5 -2.875 2.34375q-1.796875 0.828125 -4.0 0.828125zm-0.53125 -14.453125q-1.40625 0 -2.28125 0.953125q-0.859375 0.9375 -1.109375 2.6875l6.546875 0l0 -0.375q-0.03125 -1.5625 -0.84375 -2.40625q-0.8125 -0.859375 -2.3125 -0.859375zm14.7803955 -3.484375l0.140625 2.03125q1.890625 -2.359375 5.0625 -2.359375q2.796875 0 4.15625 1.65625q1.375 1.640625 1.40625 4.90625l0 11.375l-4.703125 0l0 -11.265625q0 -1.5 -0.65625 -2.171875q-0.640625 -0.671875 -2.15625 -0.671875q-1.984375 0 -2.984375 1.6875l0 12.421875l-4.703125 0l0 -17.609375l4.4375 0zm19.962585 -4.328125l0 4.328125l3.015625 0l0 3.453125l-3.015625 0l0 8.78125q0 0.984375 0.375 1.40625q0.375 0.421875 1.4375 0.421875q0.78125 0 1.375 -0.109375l0 3.5625q-1.375 0.421875 -2.84375 0.421875q-4.953125 0 -5.046875 -5.0l0 -9.484375l-2.578125 0l0 -3.453125l2.578125 0l0 -4.328125l4.703125 0z" fill-rule="nonzero"/></g></svg>