<svg version="1.1" viewBox="0.0 0.0 960.0 720.0" fill="none" stroke="none" stroke-linecap="square" stroke-miterlimit="10" xmlns:xlink="http://www.w3.org/1999/xlink" xmlns="http://www.w3.org/2000/svg"><clipPath id="p.0"><path d="m0 0l960.0 0l0 720.0l-960.0 0l0 -720.0z" clip-rule="nonzero"/></clipPath><g clip-path="url(#p.0)"><path fill="#000000" fill-opacity="0.0" d="m0 0l960.0 0l0 720.0l-960.0 0z" fill-rule="evenodd"/><path fill="#cfe2f3" d="m71.89239 228.6693l265.3543 0l0 265.3543l-265.3543 0z" fill-rule="evenodd"/><path stroke="#000000" stroke-width="1.0" stroke-linejoin="round" stroke-linecap="butt" d="m71.89239 228.6693l265.3543 0l0 265.3543l-265.3543 0z" fill-rule="evenodd"/><path fill="#434343" d="m177.01329 344.03333l-15.34375 35.453125l-8.109375 0l-15.296875 -35.453125l8.859375 0l10.796875 25.328125l10.9375 -25.328125l8.15625 0zm2.8800354 8.203125l7.90625 0l0 27.25l-7.90625 0l0 -27.25zm3.953125 -3.796875q-2.171875 0 -3.546875 -1.265625q-1.359375 -1.265625 -1.359375 -3.140625q0 -1.875 1.359375 -3.140625q1.375 -1.265625 3.546875 -1.265625q2.1875 0 3.546875 1.21875q1.375 1.203125 1.375 3.03125q0 1.96875 -1.375 3.265625q-1.359375 1.296875 -3.546875 1.296875zm37.99756 17.515625q0 0.15625 -0.15625 2.140625l-20.609375 0q0.546875 2.53125 2.625 4.0q2.078125 1.46875 5.171875 1.46875q2.125 0 3.765625 -0.625q1.65625 -0.640625 3.078125 -2.015625l4.203125 4.5625q-3.859375 4.40625 -11.25 4.40625q-4.609375 0 -8.15625 -1.796875q-3.546875 -1.796875 -5.46875 -4.984375q-1.921875 -3.203125 -1.921875 -7.25q0 -4.0 1.890625 -7.21875q1.90625 -3.21875 5.21875 -5.015625q3.328125 -1.796875 7.421875 -1.796875q4.0 0 7.234375 1.71875q3.25 1.71875 5.09375 4.9375q1.859375 3.21875 1.859375 7.46875zm-14.140625 -8.15625q-2.671875 0 -4.5 1.53125q-1.828125 1.515625 -2.234375 4.15625l13.421875 0q-0.40625 -2.59375 -2.234375 -4.140625q-1.8125 -1.546875 -4.453125 -1.546875zm62.676224 -5.5625l-9.890625 27.25l-7.59375 0l-6.125 -16.921875l-6.34375 16.921875l-7.59375 0l-9.828125 -27.25l7.453125 0l6.4375 18.4375l6.671875 -18.4375l6.6875 0l6.484375 18.4375l6.640625 -18.4375l7.0 0z" fill-rule="nonzero"/><path fill="#d9ead3" d="m627.87006 228.6693l265.35437 0l0 265.3543l-265.35437 0z" fill-rule="evenodd"/><path stroke="#000000" stroke-width="1.0" stroke-linejoin="round" stroke-linecap="butt" d="m627.87006 228.6693l265.35437 0l0 265.3543l-265.35437 0z" fill-rule="evenodd"/><path fill="#434343" d="m725.2156 361.36646q2.71875 0.859375 4.25 2.875q1.546875 2.015625 1.546875 4.96875q0 4.171875 -3.25 6.421875q-3.234375 2.234375 -9.4375 2.234375l-16.40625 0l0 -31.734375l15.5 0q5.796875 0 8.90625 2.234375q3.109375 2.21875 3.109375 6.015625q0 2.3125 -1.109375 4.125q-1.109375 1.8125 -3.109375 2.859375zm-16.0 -9.703125l0 7.484375l7.296875 0q2.71875 0 4.125 -0.953125q1.40625 -0.953125 1.40625 -2.8125q0 -1.859375 -1.40625 -2.78125q-1.40625 -0.9375 -4.125 -0.9375l-7.296875 0zm8.5625 20.671875q2.90625 0 4.375 -0.953125q1.46875 -0.953125 1.46875 -2.9375q0 -3.953125 -5.84375 -3.953125l-8.5625 0l0 7.84375l8.5625 0zm18.81665 -26.203125l7.34375 0l0 25.75l15.90625 0l0 5.984375l-23.25 0l0 -31.734375zm38.306213 32.09375q-3.859375 0 -6.921875 -1.609375q-3.0625 -1.609375 -4.78125 -4.453125q-1.71875 -2.859375 -1.71875 -6.484375q0 -3.625 1.71875 -6.484375q1.71875 -2.859375 4.78125 -4.46875q3.0625 -1.609375 6.921875 -1.609375q3.84375 0 6.875 1.609375q3.046875 1.609375 4.765625 4.46875q1.71875 2.859375 1.71875 6.484375q0 3.625 -1.71875 6.484375q-1.71875 2.84375 -4.765625 4.453125q-3.03125 1.609375 -6.875 1.609375zm0 -5.796875q2.71875 0 4.453125 -1.828125q1.75 -1.84375 1.75 -4.921875q0 -3.09375 -1.75 -4.921875q-1.734375 -1.84375 -4.453125 -1.84375q-2.734375 0 -4.5 1.84375q-1.765625 1.828125 -1.765625 4.921875q0 3.078125 1.765625 4.921875q1.765625 1.828125 4.5 1.828125zm33.768066 5.984375q-4.859375 0 -8.78125 -2.109375q-3.921875 -2.109375 -6.171875 -5.84375q-2.234375 -3.75 -2.234375 -8.453125q0 -4.71875 2.234375 -8.453125q2.25 -3.75 6.171875 -5.859375q3.921875 -2.109375 8.828125 -2.109375q4.125 0 7.453125 1.453125q3.328125 1.453125 5.59375 4.171875l-4.71875 4.359375q-3.21875 -3.71875 -7.96875 -3.71875q-2.953125 0 -5.265625 1.296875q-2.3125 1.28125 -3.609375 3.59375q-1.28125 2.3125 -1.28125 5.265625q0 2.9375 1.28125 5.25q1.296875 2.3125 3.609375 3.609375q2.3125 1.28125 5.265625 1.28125q4.75 0 7.96875 -3.75l4.71875 4.34375q-2.265625 2.765625 -5.625 4.21875q-3.34375 1.453125 -7.46875 1.453125z" fill-rule="nonzero"/><path fill="#000000" fill-opacity="0.0" d="m204.56955 494.02362c0 46.724426 138.99213 93.44092 277.98425 93.44879c138.99216 0.007873535 277.98428 -46.69287 277.98428 -93.3858" fill-rule="evenodd"/><path stroke="#000000" stroke-width="8.0" stroke-linejoin="round" stroke-linecap="butt" stroke-dasharray="8.0,24.0" d="m204.56955 494.02362c0 46.724426 138.99213 93.44092 277.98425 93.44879c69.49606 0.003967285 138.99216 -11.6692505 191.11417 -29.180115c13.030518 -4.3776855 24.975159 -9.120239 35.56244 -14.136414c5.29364 -2.5080566 10.247925 -5.0845947 14.8289795 -7.7180176c2.2905273 -1.3167725 4.487793 -2.647766 6.5873413 -3.9915771l0.5621948 -0.3623047" fill-rule="evenodd"/><path fill="#000000" stroke="#000000" stroke-width="8.0" stroke-linecap="butt" d="m741.6692 540.15796l11.722839 -36.813263l-32.64337 20.665314z" fill-rule="evenodd"/><path fill="#000000" fill-opacity="0.0" d="m204.56955 228.6693c0 -36.598434 138.99213 -73.20473 277.98425 -73.19685c138.99216 0.007873535 277.98428 36.629913 277.98428 73.25984" fill-rule="evenodd"/><path stroke="#000000" stroke-width="8.0" stroke-linejoin="round" stroke-linecap="butt" d="m239.78282 196.0499l0.41081238 -0.18875122c0.2834015 -0.12937927 0.56825256 -0.25856018 0.8545685 -0.38757324c4.5810394 -2.0641785 9.535339 -4.083679 14.828995 -6.049591c10.58728 -3.9317932 22.531921 -7.649124 35.56244 -11.080475c52.12204 -13.725403 121.6181 -22.875 191.11417 -22.871063c138.99216 0.007873535 277.98428 36.629913 277.98428 73.25984" fill-rule="evenodd"/><path fill="#000000" stroke="#000000" stroke-width="8.0" stroke-linecap="butt" d="m230.80307 186.35606l-17.653793 34.365494l35.613297 -14.9778595z" fill-rule="evenodd"/><path fill="#000000" fill-opacity="0.0" d="m421.2651 33.01181l366.61417 0l0 96.944885l-366.61417 0z" fill-rule="evenodd"/><path fill="#000000" d="m457.92136 91.51431q0 -2.65625 -1.875 -4.078125q-1.875 -1.421875 -6.75 -3.0q-4.875 -1.578125 -7.71875 -3.109375q-7.75 -4.1875 -7.75 -11.28125q0 -3.6875 2.078125 -6.578125q2.078125 -2.890625 5.96875 -4.515625q3.890625 -1.625 8.734375 -1.625q4.875 0 8.6875 1.765625q3.8125 1.765625 5.921875 4.984375q2.109375 3.21875 2.109375 7.3125l-9.375 0q0 -3.125 -1.96875 -4.859375q-1.96875 -1.734375 -5.53125 -1.734375q-3.4375 0 -5.34375 1.453125q-1.90625 1.453125 -1.90625 3.828125q0 2.21875 2.234375 3.71875q2.234375 1.5 6.578125 2.8125q8.0 2.40625 11.65625 5.96875q3.65625 3.5625 3.65625 8.875q0 5.90625 -4.46875 9.265625q-4.46875 3.359375 -12.03125 3.359375q-5.25 0 -9.5625 -1.921875q-4.3125 -1.921875 -6.578125 -5.265625q-2.265625 -3.34375 -2.265625 -7.75l9.40625 0q0 7.53125 9.0 7.53125q3.34375 0 5.21875 -1.359375q1.875 -1.359375 1.875 -3.796875zm25.96875 -30.1875l0 8.3125l5.78125 0l0 6.625l-5.78125 0l0 16.875q0 1.875 0.71875 2.6875q0.71875 0.8125 2.75 0.8125q1.5 0 2.65625 -0.21875l0 6.84375q-2.65625 0.8125 -5.46875 0.8125q-9.5 0 -9.6875 -9.59375l0 -18.21875l-4.9375 0l0 -6.625l4.9375 0l0 -8.3125l9.03125 0zm30.40622 42.125q-0.625 -1.21875 -0.90625 -3.03125q-3.2812195 3.65625 -8.5312195 3.65625q-4.96875 0 -8.234375 -2.875q-3.265625 -2.875 -3.265625 -7.25q0 -5.375 3.984375 -8.25q3.984375 -2.875 11.515625 -2.90625l4.1562195 0l0 -1.9375q0 -2.34375 -1.2030945 -3.75q-1.203125 -1.40625 -3.796875 -1.40625q-2.28125 0 -3.578125 1.09375q-1.296875 1.09375 -1.296875 3.0l-9.03125 0q0 -2.9375 1.8125 -5.4375q1.8125 -2.5 5.125 -3.921875q3.3125 -1.421875 7.4375 -1.421875q6.2499695 0 9.9218445 3.140625q3.671875 3.140625 3.671875 8.828125l0 14.65625q0.03125 4.8125 1.34375 7.28125l0 0.53125l-9.125 0zm-7.4687195 -6.28125q2.0 0 3.6875 -0.890625q1.6874695 -0.890625 2.4999695 -2.390625l0 -5.8125l-3.3749695 0q-6.78125 0 -7.21875 4.6875l-0.03125 0.53125q0 1.6875 1.1875 2.78125q1.1875 1.09375 3.25 1.09375zm32.99997 -35.84375l0 8.3125l5.78125 0l0 6.625l-5.78125 0l0 16.875q0 1.875 0.71875 2.6875q0.71875 0.8125 2.75 0.8125q1.5 0 2.65625 -0.21875l0 6.84375q-2.65625 0.8125 -5.46875 0.8125q-9.5 0 -9.6875 -9.59375l0 -18.21875l-4.9375 0l0 -6.625l4.9375 0l0 -8.3125l9.03125 0zm26.375 42.75q-7.4375 0 -12.109375 -4.5625q-4.671875 -4.5625 -4.671875 -12.15625l0 -0.875q0 -5.09375 1.96875 -9.109375q1.96875 -4.015625 5.578125 -6.1875q3.609375 -2.171875 8.234375 -2.171875q6.9375 0 10.921875 4.375q3.984375 4.375 3.984375 12.40625l0 3.6875l-21.53125 0q0.4375 3.3125 2.640625 5.3125q2.203125 2.0 5.578125 2.0q5.21875 0 8.15625 -3.78125l4.4375 4.96875q-2.03125 2.875 -5.5 4.484375q-3.46875 1.609375 -7.6875 1.609375zm-1.03125 -27.75q-2.6875 0 -4.359375 1.8125q-1.671875 1.8125 -2.140625 5.1875l12.5625 0l0 -0.71875q-0.0625 -3.0 -1.625 -4.640625q-1.5625 -1.640625 -4.4375 -1.640625z" fill-rule="nonzero"/><path fill="#000000" fill-opacity="0.0" d="m398.9449 606.04333l194.11023 0l0 96.944824l-194.11023 0z" fill-rule="evenodd"/><path fill="#000000" d="m439.3824 656.7646l-18.0 0l0 12.1875l21.125 0l0 7.53125l-30.5 0l0 -45.5l30.4375 0l0 7.59375l-21.0625 0l0 10.84375l18.0 0l0 7.34375zm19.875 8.6875l6.28125 -22.78125l9.4375 0l-11.40625 33.8125l-8.625 0l-11.40625 -33.8125l9.4375 0l6.28125 22.78125zm34.84375 11.65625q-7.4375 0 -12.109375 -4.5625q-4.671875 -4.5625 -4.671875 -12.15625l0 -0.875q0 -5.09375 1.96875 -9.109375q1.96875 -4.015625 5.578125 -6.1875q3.609375 -2.171875 8.234375 -2.171875q6.9375 0 10.921875 4.375q3.984375 4.375 3.984375 12.40625l0 3.6875l-21.53125 0q0.4375 3.3125 2.640625 5.3125q2.203125 2.0 5.578125 2.0q5.21875 0 8.15625 -3.78125l4.4375 4.96875q-2.03125 2.875 -5.5 4.484375q-3.46875 1.609375 -7.6875 1.609375zm-1.03125 -27.75q-2.6875 0 -4.359375 1.8125q-1.671875 1.8125 -2.140625 5.1875l12.5625 0l0 -0.71875q-0.0625 -3.0 -1.625 -4.640625q-1.5625 -1.640625 -4.4375 -1.640625zm28.375 -6.6875l0.28125 3.90625q3.625 -4.53125 9.71875 -4.53125q5.375 0 8.0 3.15625q2.625 3.15625 2.6875 9.4375l0 21.84375l-9.03125 0l0 -21.625q0 -2.875 -1.25 -4.171875q-1.25 -1.296875 -4.15625 -1.296875q-3.8125 0 -5.71875 3.25l0 23.84375l-9.03125 0l0 -33.8125l8.5 0zm38.34375 -8.3125l0 8.3125l5.78125 0l0 6.625l-5.78125 0l0 16.875q0 1.875 0.71875 2.6875q0.71875 0.8125 2.75 0.8125q1.5 0 2.65625 -0.21875l0 6.84375q-2.65625 0.8125 -5.46875 0.8125q-9.5 0 -9.6875 -9.59375l0 -18.21875l-4.9375 0l0 -6.625l4.9375 0l0 -8.3125l9.03125 0z" fill-rule="nonzero"/></g></svg>