<svg version="1.1" viewBox="0.0 0.0 960.0 720.0" fill="none" stroke="none" stroke-linecap="square" stroke-miterlimit="10" xmlns:xlink="http://www.w3.org/1999/xlink" xmlns="http://www.w3.org/2000/svg"><clipPath id="p.0"><path d="m0 0l960.0 0l0 720.0l-960.0 0l0 -720.0z" clip-rule="nonzero"/></clipPath><g clip-path="url(#p.0)"><path fill="#000000" fill-opacity="0.0" d="m0 0l960.0 0l0 720.0l-960.0 0z" fill-rule="evenodd"/><path fill="#cfe2f3" d="m55.59055 182.49858l246.89764 0l0 168.47243l-246.89764 0z" fill-rule="evenodd"/><path stroke="#000000" stroke-width="1.0" stroke-linejoin="round" stroke-linecap="butt" d="m55.59055 182.49858l246.89764 0l0 168.47243l-246.89764 0z" fill-rule="evenodd"/><path fill="#000000" d="m87.88616 259.84543q-3.421875 0 -6.1875 -1.484375q-2.765625 -1.5 -4.359375 -4.140625q-1.578125 -2.640625 -1.578125 -5.96875q0 -3.328125 1.578125 -5.96875q1.59375 -2.640625 4.359375 -4.125q2.765625 -1.484375 6.21875 -1.484375q2.90625 0 5.265625 1.03125q2.359375 1.015625 3.953125 2.9375l-3.328125 3.0625q-2.265625 -2.625 -5.640625 -2.625q-2.078125 0 -3.71875 0.921875q-1.625 0.90625 -2.53125 2.546875q-0.90625 1.625 -0.90625 3.703125q0 2.078125 0.90625 3.71875q0.90625 1.625 2.53125 2.546875q1.640625 0.90625 3.71875 0.90625q3.375 0 5.640625 -2.65625l3.328125 3.078125q-1.59375 1.953125 -3.96875 2.984375q-2.375 1.015625 -5.28125 1.015625zm19.973053 -0.140625q-2.71875 0 -4.890625 -1.125q-2.15625 -1.140625 -3.375 -3.15625q-1.203125 -2.015625 -1.203125 -4.578125q0 -2.5625 1.203125 -4.578125q1.21875 -2.015625 3.375 -3.140625q2.171875 -1.140625 4.890625 -1.140625q2.71875 0 4.859375 1.140625q2.140625 1.125 3.359375 3.140625q1.21875 2.015625 1.21875 4.578125q0 2.5625 -1.21875 4.578125q-1.21875 2.015625 -3.359375 3.15625q-2.140625 1.125 -4.859375 1.125zm0 -4.09375q1.921875 0 3.140625 -1.296875q1.234375 -1.296875 1.234375 -3.46875q0 -2.171875 -1.234375 -3.46875q-1.21875 -1.296875 -3.140625 -1.296875q-1.921875 0 -3.171875 1.296875q-1.25 1.296875 -1.25 3.46875q0 2.171875 1.25 3.46875q1.25 1.296875 3.171875 1.296875zm34.819405 -13.625q3.21875 0 5.125 1.90625q1.90625 1.90625 1.90625 5.703125l0 9.859375l-4.984375 0l0 -9.09375q0 -2.046875 -0.859375 -3.046875q-0.84375 -1.015625 -2.40625 -1.015625q-1.765625 0 -2.796875 1.140625q-1.015625 1.140625 -1.015625 3.375l0 8.640625l-4.984375 0l0 -9.09375q0 -4.0625 -3.265625 -4.0625q-1.7343674 0 -2.7656174 1.140625q-1.015625 1.140625 -1.015625 3.375l0 8.640625l-5.0 0l0 -17.21875l4.78125 0l0 1.984375q0.953125 -1.078125 2.34375 -1.65625q1.3906174 -0.578125 3.0624924 -0.578125q1.8125 0 3.28125 0.71875q1.484375 0.71875 2.375 2.09375q1.0625 -1.34375 2.671875 -2.078125q1.625 -0.734375 3.546875 -0.734375zm21.69307 0q2.390625 0 4.359375 1.109375q1.96875 1.09375 3.09375 3.09375q1.125 2.0 1.125 4.65625q0 2.65625 -1.125 4.65625q-1.125 2.0 -3.09375 3.109375q-1.96875 1.09375 -4.359375 1.09375q-3.296875 0 -5.1875 -2.078125l0 8.03125l-5.0 0l0 -23.421875l4.78125 0l0 1.984375q1.84375 -2.234375 5.40625 -2.234375zm-0.875 13.625q1.921875 0 3.15625 -1.296875q1.234375 -1.296875 1.234375 -3.46875q0 -2.171875 -1.234375 -3.46875q-1.234375 -1.296875 -3.15625 -1.296875q-1.90625 0 -3.140625 1.296875q-1.234375 1.296875 -1.234375 3.46875q0 2.171875 1.234375 3.46875q1.234375 1.296875 3.140625 1.296875zm20.970673 4.09375q-2.71875 0 -4.890625 -1.125q-2.15625 -1.140625 -3.375 -3.15625q-1.203125 -2.015625 -1.203125 -4.578125q0 -2.5625 1.203125 -4.578125q1.21875 -2.015625 3.375 -3.140625q2.171875 -1.140625 4.890625 -1.140625q2.71875 0 4.859375 1.140625q2.140625 1.125 3.359375 3.140625q1.21875 2.015625 1.21875 4.578125q0 2.5625 -1.21875 4.578125q-1.21875 2.015625 -3.359375 3.15625q-2.140625 1.125 -4.859375 1.125zm0 -4.09375q1.921875 0 3.140625 -1.296875q1.234375 -1.296875 1.234375 -3.46875q0 -2.171875 -1.234375 -3.46875q-1.21875 -1.296875 -3.140625 -1.296875q-1.921875 0 -3.171875 1.296875q-1.25 1.296875 -1.25 3.46875q0 2.171875 1.25 3.46875q1.25 1.296875 3.171875 1.296875zm18.553787 4.09375q-2.140625 0 -4.1875 -0.515625q-2.046875 -0.53125 -3.265625 -1.328125l1.65625 -3.59375q1.15625 0.734375 2.78125 1.203125q1.640625 0.46875 3.203125 0.46875q3.171875 0 3.171875 -1.578125q0 -0.734375 -0.859375 -1.046875q-0.859375 -0.328125 -2.65625 -0.546875q-2.109375 -0.328125 -3.484375 -0.734375q-1.375 -0.421875 -2.390625 -1.46875q-1.0 -1.0625 -1.0 -3.015625q0 -1.625 0.9375 -2.890625q0.9375 -1.265625 2.75 -1.96875q1.8125 -0.703125 4.28125 -0.703125q1.8125 0 3.625 0.40625q1.8125 0.390625 2.984375 1.09375l-1.65625 3.546875q-2.265625 -1.28125 -4.953125 -1.28125q-1.609375 0 -2.40625 0.453125q-0.796875 0.453125 -0.796875 1.15625q0 0.796875 0.859375 1.125q0.859375 0.3125 2.75 0.59375q2.109375 0.359375 3.453125 0.765625q1.34375 0.390625 2.328125 1.453125q1.0 1.046875 1.0 2.9375q0 1.609375 -0.96875 2.859375q-0.953125 1.234375 -2.796875 1.921875q-1.828125 0.6875 -4.359375 0.6875zm18.148285 -17.71875q4.0 0 6.140625 1.90625q2.140625 1.90625 2.140625 5.734375l0 9.828125l-4.671875 0l0 -2.140625q-1.40625 2.390625 -5.25 2.390625q-1.984375 0 -3.4375 -0.671875q-1.453125 -0.671875 -2.21875 -1.84375q-0.765625 -1.1875 -0.765625 -2.6875q0 -2.40625 1.796875 -3.78125q1.8125 -1.375 5.59375 -1.375l3.96875 0q0 -1.640625 -1.0 -2.515625q-0.984375 -0.875 -2.96875 -0.875q-1.375 0 -2.703125 0.4375q-1.328125 0.421875 -2.265625 1.15625l-1.78125 -3.484375q1.40625 -1.0 3.375 -1.53125q1.96875 -0.546875 4.046875 -0.546875zm-0.390625 14.359375q1.28125 0 2.265625 -0.578125q1.0 -0.59375 1.421875 -1.75l0 -1.765625l-3.421875 0q-3.078125 0 -3.078125 2.015625q0 0.96875 0.75 1.53125q0.75 0.546875 2.0625 0.546875zm23.369034 -14.359375q2.390625 0 4.359375 1.109375q1.96875 1.09375 3.09375 3.09375q1.125 2.0 1.125 4.65625q0 2.65625 -1.125 4.65625q-1.125 2.0 -3.09375 3.109375q-1.96875 1.09375 -4.359375 1.09375q-3.5625 0 -5.40625 -2.234375l0 1.984375l-4.78125 0l0 -23.75l5.0 0l0 8.359375q1.890625 -2.078125 5.1875 -2.078125zm-0.875 13.625q1.921875 0 3.15625 -1.296875q1.234375 -1.296875 1.234375 -3.46875q0 -2.171875 -1.234375 -3.46875q-1.234375 -1.296875 -3.15625 -1.296875q-1.90625 0 -3.140625 1.296875q-1.234375 1.296875 -1.234375 3.46875q0 2.171875 1.234375 3.46875q1.234375 1.296875 3.140625 1.296875zm12.767563 -19.90625l5.0 0l0 23.75l-5.0 0l0 -23.75zm26.507019 15.203125q0 0.09375 -0.09375 1.34375l-13.03125 0q0.359375 1.609375 1.671875 2.53125q1.3125 0.921875 3.25 0.921875q1.34375 0 2.390625 -0.390625q1.046875 -0.40625 1.9375 -1.265625l2.65625 2.875q-2.4375 2.78125 -7.109375 2.78125q-2.90625 0 -5.15625 -1.125q-2.234375 -1.140625 -3.453125 -3.15625q-1.203125 -2.015625 -1.203125 -4.578125q0 -2.53125 1.1875 -4.5625q1.203125 -2.03125 3.296875 -3.15625q2.09375 -1.140625 4.6875 -1.140625q2.53125 0 4.578125 1.09375q2.046875 1.078125 3.21875 3.109375q1.171875 2.03125 1.171875 4.71875zm-8.9375 -5.15625q-1.6875 0 -2.84375 0.96875q-1.15625 0.953125 -1.40625 2.625l8.484375 0q-0.265625 -1.640625 -1.421875 -2.609375q-1.140625 -0.984375 -2.8125 -0.984375z" fill-rule="nonzero"/><path fill="#000000" d="m111.84298 279.22043l0 5.921875l10.359375 0l0 4.15625l-10.359375 0l0 8.15625l-5.1875 0l0 -22.40625l16.921875 0l0 4.171875l-11.734375 0zm31.796913 1.015625l0 17.21875l-4.734375 0l0 -2.046875q-0.984375 1.125 -2.359375 1.71875q-1.375 0.578125 -2.984375 0.578125q-3.390625 0 -5.375 -1.9375q-1.9843674 -1.953125 -1.9843674 -5.796875l0 -9.734375l4.9999924 0l0 9.0q0 4.15625 3.484375 4.15625q1.796875 0 2.875 -1.171875q1.09375 -1.171875 1.09375 -3.46875l0 -8.515625l4.984375 0zm15.109039 -0.25q3.203125 0 5.171875 1.921875q1.96875 1.921875 1.96875 5.6875l0 9.859375l-5.0 0l0 -9.09375q0 -2.046875 -0.890625 -3.046875q-0.890625 -1.015625 -2.59375 -1.015625q-1.890625 0 -3.015625 1.171875q-1.109375 1.171875 -1.109375 3.46875l0 8.515625l-5.0 0l0 -17.21875l4.78125 0l0 2.015625q0.984375 -1.078125 2.453125 -1.671875q1.484375 -0.59375 3.234375 -0.59375zm20.163422 17.71875q-2.75 0 -4.953125 -1.125q-2.1875 -1.140625 -3.421875 -3.15625q-1.21875 -2.015625 -1.21875 -4.578125q0 -2.5625 1.21875 -4.578125q1.234375 -2.015625 3.421875 -3.140625q2.203125 -1.140625 4.953125 -1.140625q2.71875 0 4.75 1.140625q2.03125 1.125 2.96875 3.234375l-3.875 2.078125q-1.34375 -2.359375 -3.875 -2.359375q-1.953125 0 -3.234375 1.28125q-1.28125 1.28125 -1.28125 3.484375q0 2.203125 1.28125 3.484375q1.28125 1.28125 3.234375 1.28125q2.5625 0 3.875 -2.359375l3.875 2.109375q-0.9375 2.046875 -2.96875 3.203125q-2.03125 1.140625 -4.75 1.140625zm21.94928 -1.078125q-0.734375 0.546875 -1.8125 0.8125q-1.0625 0.265625 -2.25 0.265625q-3.078125 0 -4.765625 -1.5625q-1.671875 -1.5625 -1.671875 -4.609375l0 -7.0625l-2.65625 0l0 -3.84375l2.65625 0l0 -4.203125l5.0 0l0 4.203125l4.28125 0l0 3.84375l-4.28125 0l0 7.0q0 1.09375 0.5625 1.6875q0.5625 0.578125 1.578125 0.578125q1.1875 0 2.015625 -0.640625l1.34375 3.53125zm2.8106537 -16.390625l5.0 0l0 17.21875l-5.0 0l0 -17.21875zm2.515625 -2.390625q-1.375 0 -2.25 -0.796875q-0.859375 -0.8125 -0.859375 -2.0q0 -1.171875 0.859375 -1.96875q0.875 -0.8125 2.25 -0.8125q1.375 0 2.234375 0.78125q0.859375 0.765625 0.859375 1.90625q0 1.25 -0.859375 2.078125q-0.859375 0.8125 -2.234375 0.8125zm15.319519 19.859375q-2.71875 0 -4.890625 -1.125q-2.15625 -1.140625 -3.375 -3.15625q-1.203125 -2.015625 -1.203125 -4.578125q0 -2.5625 1.203125 -4.578125q1.21875 -2.015625 3.375 -3.140625q2.171875 -1.140625 4.890625 -1.140625q2.71875 0 4.859375 1.140625q2.140625 1.125 3.359375 3.140625q1.21875 2.015625 1.21875 4.578125q0 2.5625 -1.21875 4.578125q-1.21875 2.015625 -3.359375 3.15625q-2.140625 1.125 -4.859375 1.125zm0 -4.09375q1.921875 0 3.140625 -1.296875q1.234375 -1.296875 1.234375 -3.46875q0 -2.171875 -1.234375 -3.46875q-1.21875 -1.296875 -3.140625 -1.296875q-1.921875 0 -3.171875 1.296875q-1.25 1.296875 -1.25 3.46875q0 2.171875 1.25 3.46875q1.25 1.296875 3.171875 1.296875zm23.225662 -13.625q3.203125 0 5.171875 1.921875q1.96875 1.921875 1.96875 5.6875l0 9.859375l-5.0 0l0 -9.09375q0 -2.046875 -0.890625 -3.046875q-0.890625 -1.015625 -2.59375 -1.015625q-1.890625 0 -3.015625 1.171875q-1.109375 1.171875 -1.109375 3.46875l0 8.515625l-5.0 0l0 -17.21875l4.78125 0l0 2.015625q0.984375 -1.078125 2.453125 -1.671875q1.484375 -0.59375 3.234375 -0.59375z" fill-rule="nonzero"/><path fill="#d9ead3" d="m698.0469 182.49858l206.36218 0l0 168.47243l-206.36218 0z" fill-rule="evenodd"/><path stroke="#000000" stroke-width="1.0" stroke-linejoin="round" stroke-linecap="butt" d="m698.0469 182.49858l206.36218 0l0 168.47243l-206.36218 0z" fill-rule="evenodd"/><path fill="#000000" d="m734.9754 256.22168l-9.28125 21.453125l-4.90625 0l-9.265625 -21.453125l5.375 0l6.53125 15.328125l6.609375 -15.328125l4.9375 0zm1.7474976 4.953125l4.78125 0l0 16.5l-4.78125 0l0 -16.5zm2.390625 -2.296875q-1.3125 0 -2.140625 -0.765625q-0.828125 -0.765625 -0.828125 -1.890625q0 -1.140625 0.828125 -1.90625q0.828125 -0.765625 2.140625 -0.765625q1.328125 0 2.15625 0.734375q0.828125 0.734375 0.828125 1.84375q0 1.1875 -0.828125 1.96875q-0.828125 0.78125 -2.15625 0.78125zm22.993225 10.609375q0 0.09375 -0.09375 1.296875l-12.46875 0q0.328125 1.53125 1.578125 2.421875q1.265625 0.875 3.140625 0.875q1.28125 0 2.28125 -0.375q1.0 -0.390625 1.859375 -1.21875l2.546875 2.765625q-2.328125 2.671875 -6.8125 2.671875q-2.78125 0 -4.9375 -1.09375q-2.140625 -1.09375 -3.3125 -3.015625q-1.15625 -1.9375 -1.15625 -4.390625q0 -2.421875 1.140625 -4.359375q1.15625 -1.953125 3.15625 -3.03125q2.015625 -1.09375 4.5 -1.09375q2.421875 0 4.375 1.046875q1.96875 1.03125 3.078125 2.984375q1.125 1.9375 1.125 4.515625zm-8.546875 -4.9375q-1.625 0 -2.734375 0.921875q-1.09375 0.921875 -1.34375 2.515625l8.125 0q-0.25 -1.5625 -1.359375 -2.5q-1.09375 -0.9375 -2.6875 -0.9375zm37.912476 -3.375l-5.96875 16.5l-4.59375 0l-3.71875 -10.234375l-3.828125 10.234375l-4.59375 0l-5.953125 -16.5l4.5 0l3.90625 11.171875l4.046875 -11.171875l4.046875 0l3.921875 11.171875l4.015625 -11.171875l4.21875 0zm22.1156 16.5l-0.03125 -12.875l-6.3125 10.609375l-2.25 0l-6.28125 -10.328125l0 12.59375l-4.65625 0l0 -21.453125l4.109375 0l8.03125 13.328125l7.90625 -13.328125l4.078125 0l0.0625 21.453125l-4.65625 0zm17.26117 0.25q-2.609375 0 -4.6875 -1.09375q-2.0625 -1.09375 -3.234375 -3.015625q-1.15625 -1.9375 -1.15625 -4.390625q0 -2.453125 1.15625 -4.375q1.171875 -1.9375 3.234375 -3.015625q2.078125 -1.09375 4.6875 -1.09375q2.59375 0 4.640625 1.09375q2.0625 1.078125 3.21875 3.015625q1.171875 1.921875 1.171875 4.375q0 2.453125 -1.171875 4.390625q-1.15625 1.921875 -3.21875 3.015625q-2.046875 1.09375 -4.640625 1.09375zm0 -3.921875q1.828125 0 3.0 -1.234375q1.1875 -1.25 1.1875 -3.34375q0 -2.078125 -1.1875 -3.3125q-1.171875 -1.25 -3.0 -1.25q-1.84375 0 -3.046875 1.25q-1.1875 1.234375 -1.1875 3.3125q0 2.09375 1.1875 3.34375q1.203125 1.234375 3.046875 1.234375zm29.017395 -19.078125l0 22.75l-4.5625 0l0 -1.90625q-1.78125 2.15625 -5.15625 2.15625q-2.328125 0 -4.21875 -1.046875q-1.875 -1.046875 -2.953125 -2.96875q-1.0625 -1.9375 -1.0625 -4.484375q0 -2.546875 1.0625 -4.46875q1.078125 -1.9375 2.953125 -2.96875q1.890625 -1.046875 4.21875 -1.046875q3.171875 0 4.9375 1.984375l0 -8.0l4.78125 0zm-8.890625 19.078125q1.8125 0 3.0 -1.234375q1.203125 -1.25 1.203125 -3.34375q0 -2.078125 -1.203125 -3.3125q-1.1875 -1.25 -3.0 -1.25q-1.828125 0 -3.03125 1.25q-1.1875 1.234375 -1.1875 3.3125q0 2.09375 1.1875 3.34375q1.203125 1.234375 3.03125 1.234375zm29.464172 -4.515625q0 0.09375 -0.09375 1.296875l-12.46875 0q0.328125 1.53125 1.578125 2.421875q1.265625 0.875 3.140625 0.875q1.28125 0 2.28125 -0.375q1.0 -0.390625 1.859375 -1.21875l2.546875 2.765625q-2.328125 2.671875 -6.8125 2.671875q-2.78125 0 -4.9375 -1.09375q-2.140625 -1.09375 -3.3125 -3.015625q-1.15625 -1.9375 -1.15625 -4.390625q0 -2.421875 1.140625 -4.359375q1.15625 -1.953125 3.15625 -3.03125q2.015625 -1.09375 4.5 -1.09375q2.421875 0 4.375 1.046875q1.96875 1.03125 3.078125 2.984375q1.125 1.9375 1.125 4.515625zm-8.546875 -4.9375q-1.625 0 -2.734375 0.921875q-1.09375 0.921875 -1.34375 2.515625l8.125 0q-0.25 -1.5625 -1.359375 -2.5q-1.09375 -0.9375 -2.6875 -0.9375zm11.734802 -9.625l4.78125 0l0 22.75l-4.78125 0l0 -22.75z" fill-rule="nonzero"/><path fill="#000000" fill-opacity="0.0" d="m302.4882 266.7348c35.678986 0 50.45166 30.664154 71.35794 60.543518c20.90628 29.879395 47.946136 58.97403 85.43915 60.54355c37.49298 1.569519 85.43915 -24.386047 85.43915 -48.772095" fill-rule="evenodd"/><path stroke="#000000" stroke-width="8.0" stroke-linejoin="round" stroke-linecap="butt" stroke-dasharray="8.0,24.0" d="m302.4882 266.7348c35.678955 0 50.45166 30.664154 71.35794 60.54355c20.90628 29.879364 47.946136 58.974 85.43915 60.543488c9.37323 0.39239502 19.39981 -0.93551636 29.167175 -3.5291748c4.8837585 -1.2968445 9.702637 -2.9100647 14.342712 -4.782959c2.3200378 -0.9364319 4.595337 -1.9377441 6.811676 -2.9968567c0.55407715 -0.26483154 1.1044922 -0.5332031 1.651001 -0.8050842c0.2732544 -0.13595581 0.5455017 -0.2727661 0.81674194 -0.4104309l0.7476196 -0.38323975" fill-rule="evenodd"/><path fill="#000000" stroke="#000000" stroke-width="8.0" stroke-linecap="butt" d="m522.69525 383.69638l14.256165 -35.908264l-34.00226 18.343628z" fill-rule="evenodd"/><path fill="#000000" fill-opacity="0.0" d="m179.03937 350.971c0 73.45282 155.5433 146.89777 311.0866 146.90564c155.54333 0.007873535 311.0866 -73.421326 311.0866 -146.84262" fill-rule="evenodd"/><path stroke="#000000" stroke-width="8.0" stroke-linejoin="round" stroke-linecap="butt" d="m197.21736 395.39578l0.44241333 0.5437317c0.22554016 0.27459717 0.45295715 0.54901123 0.682251 0.8231201c0.45858765 0.5483093 0.92466736 1.0956726 1.3981476 1.6420593c1.8939972 2.1854858 3.9066467 4.3552856 6.033203 6.507141c17.012543 17.214874 41.316193 33.28195 70.48056 47.053833c58.328735 27.543854 136.1004 45.907043 213.87204 45.91098c155.54333 0.007873535 311.0866 -73.421295 311.0866 -146.84265" fill-rule="evenodd"/><path fill="#000000" stroke="#000000" stroke-width="8.0" stroke-linecap="butt" d="m209.44699 390.3916l-25.978546 -28.596466l1.5192566 38.604828z" fill-rule="evenodd"/><path fill="#000000" fill-opacity="0.0" d="m413.27634 497.87787l153.70078 0l0 100.188965l-153.70078 0z" fill-rule="evenodd"/><path fill="#000000" d="m424.85446 538.87787l0 -23.859375l9.0 0q2.375 0 3.625 0.234375q1.75 0.28125 2.9375 1.109375q1.1875 0.828125 1.90625 2.3125q0.734375 1.46875 0.734375 3.25q0 3.046875 -1.9375 5.15625q-1.9375 2.09375 -7.0 2.09375l-6.109375 0l0 9.703125l-3.15625 0zm3.15625 -12.515625l6.15625 0q3.0625 0 4.34375 -1.140625q1.296875 -1.140625 1.296875 -3.203125q0 -1.5 -0.765625 -2.5625q-0.75 -1.0625 -1.984375 -1.40625q-0.796875 -0.21875 -2.953125 -0.21875l-6.09375 0l0 8.53125zm18.667084 12.515625l0 -17.28125l2.625 0l0 2.625q1.015625 -1.84375 1.859375 -2.421875q0.859375 -0.59375 1.890625 -0.59375q1.484375 0 3.0 0.9375l-1.0 2.71875q-1.078125 -0.625 -2.15625 -0.625q-0.953125 0 -1.71875 0.578125q-0.765625 0.578125 -1.09375 1.59375q-0.484375 1.5625 -0.484375 3.421875l0 9.046875l-2.921875 0zm10.036041 -8.640625q0 -4.796875 2.671875 -7.109375q2.21875 -1.921875 5.421875 -1.921875q3.578125 0 5.828125 2.34375q2.265625 2.328125 2.265625 6.4375q0 3.34375 -1.0 5.265625q-1.0 1.90625 -2.921875 2.96875q-1.90625 1.046875 -4.171875 1.046875q-3.625 0 -5.859375 -2.328125q-2.234375 -2.328125 -2.234375 -6.703125zm3.015625 0q0 3.3125 1.4375 4.96875q1.453125 1.65625 3.640625 1.65625q2.1875 0 3.625 -1.65625q1.453125 -1.671875 1.453125 -5.0625q0 -3.203125 -1.453125 -4.859375q-1.453125 -1.65625 -3.625 -1.65625q-2.1875 0 -3.640625 1.640625q-1.4375 1.640625 -1.4375 4.96875zm21.410522 8.640625l-6.578125 -17.28125l3.09375 0l3.703125 10.34375q0.609375 1.6875 1.109375 3.484375q0.390625 -1.359375 1.09375 -3.28125l3.84375 -10.546875l3.015625 0l-6.546875 17.28125l-2.734375 0zm11.8828125 -20.484375l0 -3.375l2.921875 0l0 3.375l-2.921875 0zm0 20.484375l0 -17.28125l2.921875 0l0 17.28125l-2.921875 0zm18.59195 0l0 -2.1875q-1.640625 2.578125 -4.828125 2.578125q-2.0625 0 -3.796875 -1.140625q-1.734375 -1.140625 -2.6875 -3.171875q-0.953125 -2.046875 -0.953125 -4.703125q0 -2.59375 0.859375 -4.6875q0.859375 -2.109375 2.578125 -3.234375q1.734375 -1.125 3.875 -1.125q1.5625 0 2.78125 0.65625q1.21875 0.65625 1.984375 1.71875l0 -8.5625l2.90625 0l0 23.859375l-2.71875 0zm-9.25 -8.625q0 3.3125 1.390625 4.96875q1.40625 1.640625 3.3125 1.640625q1.90625 0 3.25 -1.5625q1.34375 -1.578125 1.34375 -4.796875q0 -3.546875 -1.375 -5.203125q-1.359375 -1.671875 -3.359375 -1.671875q-1.953125 0 -3.265625 1.59375q-1.296875 1.59375 -1.296875 5.03125zm28.410522 3.0625l3.015625 0.375q-0.703125 2.65625 -2.640625 4.125q-1.9375 1.453125 -4.953125 1.453125q-3.796875 0 -6.015625 -2.328125q-2.21875 -2.34375 -2.21875 -6.5625q0 -4.359375 2.25 -6.765625q2.25 -2.40625 5.828125 -2.40625q3.46875 0 5.65625 2.359375q2.203125 2.359375 2.203125 6.640625q0 0.265625 -0.015625 0.78125l-12.890625 0q0.15625 2.84375 1.609375 4.359375q1.453125 1.515625 3.609375 1.515625q1.609375 0 2.75 -0.84375q1.140625 -0.84375 1.8125 -2.703125zm-9.625 -4.734375l9.65625 0q-0.203125 -2.1875 -1.109375 -3.28125q-1.40625 -1.6875 -3.625 -1.6875q-2.015625 0 -3.390625 1.359375q-1.375 1.34375 -1.53125 3.609375zm15.160522 5.140625l2.890625 -0.453125q0.25 1.734375 1.359375 2.671875q1.109375 0.921875 3.109375 0.921875q2.03125 0 3.0 -0.8125q0.984375 -0.828125 0.984375 -1.9375q0 -1.0 -0.875 -1.5625q-0.59375 -0.390625 -2.984375 -1.0q-3.234375 -0.8125 -4.484375 -1.40625q-1.234375 -0.59375 -1.875 -1.640625q-0.640625 -1.046875 -0.640625 -2.3125q0 -1.15625 0.53125 -2.140625q0.53125 -0.984375 1.4375 -1.640625q0.6875 -0.5 1.859375 -0.84375q1.1875 -0.359375 2.53125 -0.359375q2.03125 0 3.5625 0.59375q1.546875 0.578125 2.28125 1.578125q0.734375 1.0 1.015625 2.671875l-2.875 0.390625q-0.1875 -1.328125 -1.125 -2.078125q-0.9375 -0.75 -2.640625 -0.75q-2.03125 0 -2.890625 0.671875q-0.859375 0.65625 -0.859375 1.5625q0 0.5625 0.359375 1.015625q0.359375 0.484375 1.125 0.78125q0.4375 0.171875 2.578125 0.75q3.109375 0.828125 4.34375 1.359375q1.234375 0.53125 1.921875 1.546875q0.703125 1.0 0.703125 2.5q0 1.46875 -0.859375 2.765625q-0.84375 1.28125 -2.453125 2.0q-1.609375 0.703125 -3.65625 0.703125q-3.359375 0 -5.125 -1.390625q-1.765625 -1.40625 -2.25 -4.15625z" fill-rule="nonzero"/><path fill="#000000" d="m424.71384 578.87787l0 -23.859375l8.953125 0q2.734375 0 4.375 0.734375q1.65625 0.71875 2.59375 2.234375q0.9375 1.5 0.9375 3.140625q0 1.53125 -0.828125 2.890625q-0.828125 1.34375 -2.5 2.171875q2.15625 0.625 3.3125 2.15625q1.171875 1.53125 1.171875 3.609375q0 1.6875 -0.703125 3.125q-0.703125 1.4375 -1.75 2.21875q-1.046875 0.78125 -2.625 1.1875q-1.5625 0.390625 -3.84375 0.390625l-9.09375 0zm3.15625 -13.828125l5.15625 0q2.109375 0 3.015625 -0.28125q1.203125 -0.359375 1.8125 -1.1875q0.609375 -0.828125 0.609375 -2.078125q0 -1.1875 -0.578125 -2.09375q-0.5625 -0.90625 -1.625 -1.234375q-1.046875 -0.34375 -3.625 -0.34375l-4.765625 0l0 7.21875zm0 11.015625l5.9375 0q1.53125 0 2.15625 -0.109375q1.09375 -0.203125 1.8125 -0.65625q0.734375 -0.453125 1.203125 -1.328125q0.484375 -0.875 0.484375 -2.015625q0 -1.328125 -0.6875 -2.3125q-0.6875 -0.984375 -1.90625 -1.375q-1.203125 -0.40625 -3.484375 -0.40625l-5.515625 0l0 8.203125zm19.073334 2.8125l0 -23.859375l3.15625 0l0 21.046875l11.75 0l0 2.8125l-14.90625 0zm17.207397 -8.640625q0 -4.796875 2.671875 -7.109375q2.21875 -1.921875 5.421875 -1.921875q3.578125 0 5.828125 2.34375q2.265625 2.328125 2.265625 6.4375q0 3.34375 -1.0 5.265625q-1.0 1.90625 -2.921875 2.96875q-1.90625 1.046875 -4.171875 1.046875q-3.625 0 -5.859375 -2.328125q-2.234375 -2.328125 -2.234375 -6.703125zm3.015625 0q0 3.3125 1.4375 4.96875q1.453125 1.65625 3.640625 1.65625q2.1875 0 3.625 -1.65625q1.453125 -1.671875 1.453125 -5.0625q0 -3.203125 -1.453125 -4.859375q-1.453125 -1.65625 -3.625 -1.65625q-2.1875 0 -3.640625 1.640625q-1.4375 1.640625 -1.4375 4.96875zm34.004272 0.28125l3.15625 0.796875q-1.0 3.890625 -3.578125 5.9375q-2.578125 2.03125 -6.296875 2.03125q-3.859375 0 -6.28125 -1.5625q-2.40625 -1.578125 -3.671875 -4.546875q-1.265625 -2.984375 -1.265625 -6.40625q0 -3.71875 1.421875 -6.5q1.421875 -2.78125 4.046875 -4.21875q2.640625 -1.4375 5.796875 -1.4375q3.578125 0 6.015625 1.828125q2.453125 1.8125 3.40625 5.125l-3.109375 0.734375q-0.828125 -2.609375 -2.40625 -3.796875q-1.578125 -1.1875 -3.96875 -1.1875q-2.75 0 -4.609375 1.328125q-1.84375 1.3125 -2.59375 3.53125q-0.734375 2.21875 -0.734375 4.578125q0 3.046875 0.875 5.3125q0.890625 2.265625 2.765625 3.390625q1.875 1.125 4.046875 1.125q2.65625 0 4.484375 -1.53125q1.84375 -1.53125 2.5 -4.53125zm5.506012 3.203125l2.890625 -0.453125q0.25 1.734375 1.359375 2.671875q1.1094055 0.921875 3.1094055 0.921875q2.03125 0 3.0 -0.8125q0.984375 -0.828125 0.984375 -1.9375q0 -1.0 -0.875 -1.5625q-0.59375 -0.390625 -2.984375 -1.0q-3.2344055 -0.8125 -4.4844055 -1.40625q-1.234375 -0.59375 -1.875 -1.640625q-0.640625 -1.046875 -0.640625 -2.3125q0 -1.15625 0.53125 -2.140625q0.53125 -0.984375 1.4375 -1.640625q0.6875 -0.5 1.859375 -0.84375q1.1875305 -0.359375 2.5312805 -0.359375q2.03125 0 3.5625 0.59375q1.546875 0.578125 2.28125 1.578125q0.734375 1.0 1.015625 2.671875l-2.875 0.390625q-0.1875 -1.328125 -1.125 -2.078125q-0.9375 -0.75 -2.640625 -0.75q-2.0312805 0 -2.8906555 0.671875q-0.859375 0.65625 -0.859375 1.5625q0 0.5625 0.359375 1.015625q0.359375 0.484375 1.125 0.78125q0.4375 0.171875 2.5781555 0.75q3.109375 0.828125 4.34375 1.359375q1.234375 0.53125 1.921875 1.546875q0.703125 1.0 0.703125 2.5q0 1.46875 -0.859375 2.765625q-0.84375 1.28125 -2.453125 2.0q-1.609375 0.703125 -3.65625 0.703125q-3.3594055 0 -5.1250305 -1.390625q-1.765625 -1.40625 -2.25 -4.15625z" fill-rule="nonzero"/><path fill="#000000" fill-opacity="0.0" d="m343.13397 374.4449l115.87402 0l0 59.77951l-115.87402 0z" fill-rule="evenodd"/><path fill="#000000" d="m354.7746 415.4449l0 -23.859375l17.25 0l0 2.8125l-14.09375 0l0 7.3125l13.1875 0l0 2.796875l-13.1875 0l0 8.125l14.640625 0l0 2.8125l-17.796875 0zm26.58899 0l-6.578125 -17.28125l3.09375 0l3.703125 10.34375q0.609375 1.6875 1.109375 3.484375q0.390625 -1.359375 1.09375 -3.28125l3.84375 -10.546875l3.015625 0l-6.546875 17.28125l-2.734375 0zm23.695312 -5.5625l3.015625 0.375q-0.703125 2.65625 -2.640625 4.125q-1.9375 1.453125 -4.953125 1.453125q-3.796875 0 -6.015625 -2.328125q-2.21875 -2.34375 -2.21875 -6.5625q0 -4.359375 2.25 -6.765625q2.25 -2.40625 5.828125 -2.40625q3.46875 0 5.65625 2.359375q2.203125 2.359375 2.203125 6.640625q0 0.265625 -0.015625 0.78125l-12.890625 0q0.15625 2.84375 1.609375 4.359375q1.453125 1.515625 3.609375 1.515625q1.609375 0 2.75 -0.84375q1.140625 -0.84375 1.8125 -2.703125zm-9.625 -4.734375l9.65625 0q-0.203125 -2.1875 -1.109375 -3.28125q-1.40625 -1.6875 -3.625 -1.6875q-2.015625 0 -3.390625 1.359375q-1.375 1.34375 -1.53125 3.609375zm16.332397 10.296875l0 -17.28125l2.625 0l0 2.453125q1.90625 -2.84375 5.5 -2.84375q1.5625 0 2.875 0.5625q1.3125 0.5625 1.953125 1.46875q0.65625 0.90625 0.921875 2.171875q0.15625 0.8125 0.15625 2.84375l0 10.625l-2.921875 0l0 -10.515625q0 -1.78125 -0.34375 -2.671875q-0.34375 -0.890625 -1.21875 -1.421875q-0.859375 -0.53125 -2.03125 -0.53125q-1.875 0 -3.234375 1.1875q-1.359375 1.1875 -1.359375 4.515625l0 9.4375l-2.921875 0zm24.926147 -2.625l0.421875 2.59375q-1.234375 0.265625 -2.21875 0.265625q-1.59375 0 -2.46875 -0.5q-0.875 -0.515625 -1.234375 -1.328125q-0.359375 -0.828125 -0.359375 -3.46875l0 -9.9375l-2.15625 0l0 -2.28125l2.15625 0l0 -4.28125l2.90625 -1.75l0 6.03125l2.953125 0l0 2.28125l-2.953125 0l0 10.109375q0 1.25 0.15625 1.609375q0.15625 0.359375 0.5 0.578125q0.359375 0.203125 1.015625 0.203125q0.484375 0 1.28125 -0.125z" fill-rule="nonzero"/><path fill="#d9ead3" d="m486.7963 223.17932l115.87399 0l0 115.87402l-115.87399 0z" fill-rule="evenodd"/><path stroke="#000000" stroke-width="1.0" stroke-linejoin="round" stroke-linecap="butt" d="m486.7963 223.17932l115.87399 0l0 115.87402l-115.87399 0z" fill-rule="evenodd"/><path fill="#000000" d="m519.7946 281.1957q1.921875 0.59375 3.0 2.03125q1.09375 1.421875 1.09375 3.5q0 2.9375 -2.296875 4.53125q-2.28125 1.578125 -6.671875 1.578125l-11.5781555 0l0 -22.40625l10.9375305 0q4.109375 0 6.296875 1.578125q2.1875 1.5625 2.1875 4.25q0 1.640625 -0.78125 2.921875q-0.78125 1.265625 -2.1875 2.015625zm-11.2969055 -6.859375l0 5.28125l5.1406555 0q1.921875 0 2.90625 -0.671875q1.0 -0.671875 1.0 -1.984375q0 -1.3125 -1.0 -1.96875q-0.984375 -0.65625 -2.90625 -0.65625l-5.1406555 0zm6.0469055 14.59375q2.046875 0 3.078125 -0.671875q1.046875 -0.671875 1.046875 -2.078125q0 -2.78125 -4.125 -2.78125l-6.0469055 0l0 5.53125l6.0469055 0zm13.2769165 -18.5l5.1875 0l0 18.1875l11.234375 0l0 4.21875l-16.421875 0l0 -22.40625zm27.043762 22.65625q-2.71875 0 -4.890625 -1.125q-2.15625 -1.140625 -3.375 -3.15625q-1.203125 -2.015625 -1.203125 -4.578125q0 -2.5625 1.203125 -4.578125q1.21875 -2.015625 3.375 -3.140625q2.171875 -1.140625 4.890625 -1.140625q2.71875 0 4.859375 1.140625q2.140625 1.125 3.359375 3.140625q1.21875 2.015625 1.21875 4.578125q0 2.5625 -1.21875 4.578125q-1.21875 2.015625 -3.359375 3.15625q-2.140625 1.125 -4.859375 1.125zm0 -4.09375q1.921875 0 3.140625 -1.296875q1.234375 -1.296875 1.234375 -3.46875q0 -2.171875 -1.234375 -3.46875q-1.21875 -1.296875 -3.140625 -1.296875q-1.921875 0 -3.171875 1.296875q-1.25 1.296875 -1.25 3.46875q0 2.171875 1.25 3.46875q1.25 1.296875 3.171875 1.296875zm23.835022 4.234375q-3.421875 0 -6.1875 -1.484375q-2.765625 -1.5 -4.359375 -4.140625q-1.578125 -2.640625 -1.578125 -5.96875q0 -3.328125 1.578125 -5.96875q1.59375 -2.640625 4.359375 -4.125q2.765625 -1.484375 6.21875 -1.484375q2.90625 0 5.265625 1.03125q2.359375 1.015625 3.953125 2.9375l-3.328125 3.0625q-2.265625 -2.625 -5.640625 -2.625q-2.078125 0 -3.71875 0.921875q-1.625 0.90625 -2.53125 2.546875q-0.90625 1.625 -0.90625 3.703125q0 2.078125 0.90625 3.71875q0.90625 1.625 2.53125 2.546875q1.640625 0.90625 3.71875 0.90625q3.375 0 5.640625 -2.65625l3.328125 3.078125q-1.59375 1.953125 -3.96875 2.984375q-2.375 1.015625 -5.28125 1.015625z" fill-rule="nonzero"/><path fill="#000000" fill-opacity="0.0" d="m302.4882 266.7348c46.073334 0 69.85446 -15.320953 92.14667 -29.719254c22.292175 -14.3983 43.09543 -27.873947 75.04477 -29.719254c31.94934 -1.8453064 75.0448 7.939728 75.0448 15.879456" fill-rule="evenodd"/><path stroke="#000000" stroke-width="8.0" stroke-linejoin="round" stroke-linecap="butt" d="m350.00204 259.92072l0.4571228 -0.14666748c0.48382568 -0.15682983 0.964386 -0.31570435 1.441742 -0.47659302c1.9093323 -0.64352417 3.7671509 -1.3191528 5.5785522 -2.0229187c14.490936 -5.63002 26.009308 -13.059845 37.155396 -20.258987c22.292175 -14.3983 43.09543 -27.873932 75.04477 -29.719254c31.94934 -1.8453064 75.0448 7.939728 75.0448 15.879456" fill-rule="evenodd"/><path fill="#000000" stroke="#000000" stroke-width="8.0" stroke-linecap="butt" d="m348.12622 246.84067l-34.06125 18.233887l37.812927 7.926178z" fill-rule="evenodd"/><path fill="#000000" fill-opacity="0.0" d="m416.32242 133.87665l128.40945 0l0 59.779526l-128.40945 0z" fill-rule="evenodd"/><path fill="#000000" d="m426.82242 167.20477l2.96875 -0.25q0.21875 1.78125 0.984375 2.9375q0.78125 1.140625 2.40625 1.859375q1.625 0.703125 3.65625 0.703125q1.8125 0 3.1875 -0.53125q1.390625 -0.546875 2.0625 -1.484375q0.671875 -0.9375 0.671875 -2.046875q0 -1.109375 -0.65625 -1.953125q-0.640625 -0.84375 -2.140625 -1.40625q-0.953125 -0.375 -4.25 -1.15625q-3.28125 -0.796875 -4.59375 -1.5q-1.71875 -0.890625 -2.5625 -2.21875q-0.828125 -1.328125 -0.828125 -2.96875q0 -1.8125 1.015625 -3.375q1.03125 -1.578125 3.0 -2.390625q1.96875 -0.8125 4.390625 -0.8125q2.640625 0 4.671875 0.859375q2.03125 0.84375 3.109375 2.515625q1.09375 1.65625 1.171875 3.75l-3.015625 0.234375q-0.25 -2.265625 -1.65625 -3.421875q-1.40625 -1.15625 -4.15625 -1.15625q-2.859375 0 -4.171875 1.0625q-1.3125 1.046875 -1.3125 2.515625q0 1.296875 0.921875 2.125q0.921875 0.828125 4.765625 1.703125q3.84375 0.859375 5.28125 1.515625q2.078125 0.953125 3.0625 2.4375q1.0 1.46875 1.0 3.390625q0 1.90625 -1.09375 3.59375q-1.078125 1.671875 -3.125 2.609375q-2.046875 0.9375 -4.59375 0.9375q-3.25 0 -5.4375 -0.9375q-2.1875 -0.953125 -3.4375 -2.84375q-1.234375 -1.890625 -1.296875 -4.296875zm29.323334 5.046875l0.421875 2.59375q-1.234375 0.265625 -2.21875 0.265625q-1.59375 0 -2.46875 -0.5q-0.875 -0.515625 -1.234375 -1.328125q-0.359375 -0.828125 -0.359375 -3.46875l0 -9.9375l-2.15625 0l0 -2.28125l2.15625 0l0 -4.28125l2.90625 -1.75l0 6.03125l2.953125 0l0 2.28125l-2.953125 0l0 10.109375q0 1.25 0.15625 1.609375q0.15625 0.359375 0.5 0.578125q0.359375 0.203125 1.015625 0.203125q0.484375 0 1.28125 -0.125zm14.134644 0.5q-1.625 1.375 -3.125 1.953125q-1.5 0.5625 -3.234375 0.5625q-2.84375 0 -4.375 -1.390625q-1.53125 -1.390625 -1.53125 -3.5625q0 -1.265625 0.578125 -2.3125q0.578125 -1.046875 1.515625 -1.671875q0.9375 -0.640625 2.109375 -0.96875q0.859375 -0.234375 2.59375 -0.4375q3.546875 -0.421875 5.234375 -1.015625q0.015625 -0.609375 0.015625 -0.765625q0 -1.78125 -0.828125 -2.515625q-1.125 -1.0 -3.34375 -1.0q-2.0625 0 -3.046875 0.734375q-0.984375 0.71875 -1.453125 2.546875l-2.875 -0.390625q0.390625 -1.828125 1.28125 -2.953125q0.90625 -1.140625 2.59375 -1.75q1.703125 -0.609375 3.921875 -0.609375q2.21875 0 3.59375 0.53125q1.390625 0.515625 2.03125 1.3125q0.65625 0.78125 0.921875 1.984375q0.140625 0.75 0.140625 2.703125l0 3.90625q0 4.078125 0.1875 5.15625q0.1875 1.078125 0.75 2.078125l-3.0625 0q-0.453125 -0.90625 -0.59375 -2.125zm-0.234375 -6.546875q-1.59375 0.65625 -4.78125 1.109375q-1.8125 0.25 -2.5625 0.578125q-0.75 0.328125 -1.15625 0.953125q-0.40625 0.625 -0.40625 1.390625q0 1.171875 0.890625 1.953125q0.890625 0.78125 2.59375 0.78125q1.6875 0 3.0 -0.734375q1.328125 -0.75 1.953125 -2.03125q0.46875 -0.984375 0.46875 -2.921875l0 -1.078125zm13.894897 6.046875l0.421875 2.59375q-1.234375 0.265625 -2.21875 0.265625q-1.59375 0 -2.46875 -0.5q-0.875 -0.515625 -1.234375 -1.328125q-0.359375 -0.828125 -0.359375 -3.46875l0 -9.9375l-2.15625 0l0 -2.28125l2.15625 0l0 -4.28125l2.90625 -1.75l0 6.03125l2.953125 0l0 2.28125l-2.953125 0l0 10.109375q0 1.25 0.15625 1.609375q0.15625 0.359375 0.5 0.578125q0.359375 0.203125 1.015625 0.203125q0.484375 0 1.28125 -0.125zm14.697113 -2.9375l3.015625 0.375q-0.703125 2.65625 -2.640625 4.125q-1.9375 1.453125 -4.953125 1.453125q-3.796875 0 -6.015625 -2.328125q-2.21875 -2.34375 -2.21875 -6.5625q0 -4.359375 2.25 -6.765625q2.25 -2.40625 5.828125 -2.40625q3.46875 0 5.65625 2.359375q2.203125 2.359375 2.203125 6.640625q0 0.265625 -0.015625 0.78125l-12.890625 0q0.15625 2.84375 1.609375 4.359375q1.453125 1.515625 3.609375 1.515625q1.609375 0 2.75 -0.84375q1.140625 -0.84375 1.8125 -2.703125zm-9.625 -4.734375l9.65625 0q-0.203125 -2.1875 -1.109375 -3.28125q-1.40625 -1.6875 -3.625 -1.6875q-2.015625 0 -3.390625 1.359375q-1.375 1.34375 -1.53125 3.609375z" fill-rule="nonzero"/></g></svg>