<svg version="1.1" viewBox="0.0 0.0 960.0 720.0" fill="none" stroke="none" stroke-linecap="square" stroke-miterlimit="10" xmlns:xlink="http://www.w3.org/1999/xlink" xmlns="http://www.w3.org/2000/svg"><clipPath id="p.0"><path d="m0 0l960.0 0l0 720.0l-960.0 0l0 -720.0z" clip-rule="nonzero"/></clipPath><g clip-path="url(#p.0)"><path fill="#000000" fill-opacity="0.0" d="m0 0l960.0 0l0 720.0l-960.0 0z" fill-rule="evenodd"/><path fill="#cfe2f3" d="m154.96587 297.7979l212.53542 0l0 138.74014l-212.53542 0z" fill-rule="evenodd"/><path stroke="#000000" stroke-width="1.0" stroke-linejoin="round" stroke-linecap="butt" d="m154.96587 297.7979l212.53542 0l0 138.74014l-212.53542 0z" fill-rule="evenodd"/><path fill="#434343" d="m233.6773 349.85486l-15.34375 35.453125l-8.109375 0l-15.296875 -35.453125l8.859375 0l10.796875 25.328125l10.9375 -25.328125l8.15625 0zm2.8800354 8.203125l7.90625 0l0 27.25l-7.90625 0l0 -27.25zm3.953125 -3.796875q-2.171875 0 -3.546875 -1.265625q-1.359375 -1.265625 -1.359375 -3.140625q0 -1.875 1.359375 -3.140625q1.375 -1.265625 3.546875 -1.265625q2.1875 0 3.546875 1.21875q1.375 1.203125 1.375 3.03125q0 1.96875 -1.375 3.265625q-1.359375 1.296875 -3.546875 1.296875zm37.99756 17.515625q0 0.15625 -0.15625 2.140625l-20.609375 0q0.546875 2.53125 2.625 4.0q2.078125 1.46875 5.171875 1.46875q2.125 0 3.765625 -0.625q1.65625 -0.640625 3.078125 -2.015625l4.203125 4.5625q-3.859375 4.40625 -11.25 4.40625q-4.609375 0 -8.15625 -1.796875q-3.546875 -1.796875 -5.46875 -4.984375q-1.921875 -3.203125 -1.921875 -7.25q0 -4.0 1.890625 -7.21875q1.90625 -3.21875 5.21875 -5.015625q3.328125 -1.796875 7.421875 -1.796875q4.0 0 7.234375 1.71875q3.25 1.71875 5.09375 4.9375q1.859375 3.21875 1.859375 7.46875zm-14.140625 -8.15625q-2.671875 0 -4.5 1.53125q-1.828125 1.515625 -2.234375 4.15625l13.421875 0q-0.40625 -2.59375 -2.234375 -4.140625q-1.8125 -1.546875 -4.453125 -1.546875zm62.67621 -5.5625l-9.890625 27.25l-7.59375 0l-6.125 -16.921875l-6.34375 16.921875l-7.59375 0l-9.8280945 -27.25l7.4530945 0l6.4375 18.4375l6.671875 -18.4375l6.6875 0l6.484375 18.4375l6.640625 -18.4375l7.0 0z" fill-rule="nonzero"/><path fill="#d9ead3" d="m469.89728 71.3832l220.28345 0l0 138.74014l-220.28345 0z" fill-rule="evenodd"/><path stroke="#000000" stroke-width="1.0" stroke-linejoin="round" stroke-linecap="butt" d="m469.89728 71.3832l220.28345 0l0 138.74014l-220.28345 0z" fill-rule="evenodd"/><path fill="#434343" d="m544.70734 140.77328q2.71875 0.859375 4.25 2.875q1.546875 2.015625 1.546875 4.96875q0 4.171875 -3.25 6.421875q-3.234375 2.234375 -9.4375 2.234375l-16.40625 0l0 -31.734383l15.5 0q5.796875 0 8.90625 2.234375q3.109375 2.2187576 3.109375 6.0156326q0 2.3125 -1.109375 4.125q-1.109375 1.8125 -3.109375 2.859375zm-16.0 -9.703125l0 7.484375l7.296875 0q2.71875 0 4.125 -0.953125q1.40625 -0.953125 1.40625 -2.8125q0 -1.859375 -1.40625 -2.78125q-1.40625 -0.9375 -4.125 -0.9375l-7.296875 0zm8.5625 20.671875q2.90625 0 4.375 -0.953125q1.46875 -0.953125 1.46875 -2.9375q0 -3.953125 -5.84375 -3.953125l-8.5625 0l0 7.84375l8.5625 0zm18.81665 -26.203133l7.34375 0l0 25.750008l15.90625 0l0 5.984375l-23.25 0l0 -31.734383zm38.306274 32.093758q-3.859375 0 -6.921875 -1.609375q-3.0625 -1.609375 -4.78125 -4.453125q-1.71875 -2.859375 -1.71875 -6.484375q0 -3.625 1.71875 -6.484375q1.71875 -2.859375 4.78125 -4.46875q3.0625 -1.609375 6.921875 -1.609375q3.84375 0 6.875 1.609375q3.046875 1.609375 4.765625 4.46875q1.71875 2.859375 1.71875 6.484375q0 3.625 -1.71875 6.484375q-1.71875 2.84375 -4.765625 4.453125q-3.03125 1.609375 -6.875 1.609375zm0 -5.796875q2.71875 0 4.453125 -1.828125q1.75 -1.84375 1.75 -4.921875q0 -3.09375 -1.75 -4.921875q-1.734375 -1.84375 -4.453125 -1.84375q-2.734375 0 -4.5 1.84375q-1.765625 1.828125 -1.765625 4.921875q0 3.078125 1.765625 4.921875q1.765625 1.828125 4.5 1.828125zm33.768005 5.984375q-4.859375 0 -8.78125 -2.109375q-3.921875 -2.109375 -6.171875 -5.84375q-2.234375 -3.75 -2.234375 -8.453125q0 -4.71875 2.234375 -8.453125q2.25 -3.75 6.171875 -5.8593826q3.921875 -2.109375 8.828125 -2.109375q4.125 0 7.453125 1.453125q3.328125 1.453125 5.59375 4.1718826l-4.71875 4.359375q-3.21875 -3.71875 -7.96875 -3.71875q-2.953125 0 -5.265625 1.296875q-2.3125 1.28125 -3.609375 3.59375q-1.28125 2.3125 -1.28125 5.265625q0 2.9375 1.28125 5.25q1.296875 2.3125 3.609375 3.609375q2.3125 1.28125 5.265625 1.28125q4.75 0 7.96875 -3.75l4.71875 4.34375q-2.265625 2.765625 -5.625 4.21875q-3.34375 1.453125 -7.46875 1.453125z" fill-rule="nonzero"/><path fill="#000000" fill-opacity="0.0" d="m367.50128 367.16797c106.26773 0 212.53546 -78.519684 212.53546 -157.03935" fill-rule="evenodd"/><path stroke="#000000" stroke-width="8.0" stroke-linejoin="round" stroke-linecap="butt" stroke-dasharray="8.0,24.0" d="m367.5013 367.16797c53.13385 0 106.26773 -19.629913 146.11813 -49.0748c19.92517 -14.722443 36.52948 -31.89862 48.152527 -50.301666c1.4528809 -2.3003845 2.827942 -4.619934 4.121887 -6.9562683c0.64697266 -1.1681519 1.2736816 -2.3405151 1.8797607 -3.5167542l0.35272217 -0.69104004" fill-rule="evenodd"/><path fill="#000000" stroke="#000000" stroke-width="8.0" stroke-linecap="butt" d="m580.92694 259.90625l-3.7921753 -38.44818l-21.809021 31.89058z" fill-rule="evenodd"/><path fill="#000000" fill-opacity="0.0" d="m261.23358 297.7979c0 -125.707886 79.700775 -223.11261 159.40158 -251.41576c79.700775 -28.303148 159.40158 12.495277 159.40158 24.990551" fill-rule="evenodd"/><path stroke="#000000" stroke-width="8.0" stroke-linejoin="round" stroke-linecap="butt" d="m265.15604 249.95844l0.10836792 -0.6539459c0.15444946 -0.91773987 0.31304932 -1.8334198 0.4758911 -2.7470398c0.32562256 -1.8271942 0.66793823 -3.6460724 1.0267029 -5.456497c0.7175293 -3.6208496 1.5007324 -7.2078247 2.347168 -10.759705c1.6928406 -7.1037292 3.6386719 -14.067032 5.817993 -20.879944c8.717255 -27.251602 21.170502 -52.09677 36.11441 -73.89804c29.887787 -43.60257 69.73822 -75.02953 109.58859 -89.18111c79.700806 -28.30315 159.40158 12.495274 159.40158 24.990547" fill-rule="evenodd"/><path fill="#000000" stroke="#000000" stroke-width="8.0" stroke-linecap="butt" d="m251.98636 248.87863l10.202911 37.263153l16.136414 -35.103546z" fill-rule="evenodd"/><path fill="#000000" fill-opacity="0.0" d="m173.80273 139.51181l138.74017 0l0 61.417328l-138.74017 0z" fill-rule="evenodd"/><path fill="#000000" d="m197.77148 175.32306q0 -1.4375 -1.015625 -2.203125q-1.0 -0.765625 -3.640625 -1.625q-2.640625 -0.859375 -4.1875 -1.6875q-4.203125 -2.265625 -4.203125 -6.109375q0 -2.0 1.125 -3.5625q1.140625 -1.5625 3.234375 -2.4375q2.109375 -0.890625 4.734375 -0.890625q2.640625 0 4.703125 0.96875q2.0625 0.953125 3.203125 2.703125q1.140625 1.734375 1.140625 3.953125l-5.0625 0q0 -1.6875 -1.078125 -2.625q-1.0625 -0.953125 -2.984375 -0.953125q-1.875 0 -2.90625 0.796875q-1.03125 0.78125 -1.03125 2.0625q0 1.203125 1.203125 2.015625q1.21875 0.8125 3.578125 1.53125q4.328125 1.296875 6.296875 3.234375q1.984375 1.921875 1.984375 4.796875q0 3.203125 -2.421875 5.03125q-2.40625 1.8125 -6.5 1.8125q-2.84375 0 -5.1875 -1.046875q-2.328125 -1.046875 -3.5625 -2.84375q-1.21875 -1.8125 -1.21875 -4.203125l5.09375 0q0 4.078125 4.875 4.078125q1.8125 0 2.8125 -0.734375q1.015625 -0.734375 1.015625 -2.0625zm14.070419 -16.34375l0 4.5l3.125 0l0 3.59375l-3.125 0l0 9.140625q0 1.015625 0.390625 1.453125q0.390625 0.4375 1.484375 0.4375q0.8125 0 1.4375 -0.125l0 3.71875q-1.4375 0.4375 -2.953125 0.4375q-5.15625 0 -5.25 -5.203125l0 -9.859375l-2.671875 0l0 -3.59375l2.671875 0l0 -4.5l4.890625 0zm16.460022 22.8125q-0.328125 -0.65625 -0.484375 -1.640625q-1.78125 1.984375 -4.625 1.984375q-2.6875 0 -4.453125 -1.5625q-1.765625 -1.5625 -1.765625 -3.921875q0 -2.921875 2.15625 -4.46875q2.15625 -1.5625 6.234375 -1.578125l2.25 0l0 -1.046875q0 -1.265625 -0.65625 -2.03125q-0.65625 -0.765625 -2.046875 -0.765625q-1.234375 0 -1.9375 0.59375q-0.703125 0.59375 -0.703125 1.625l-4.890625 0q0 -1.59375 0.96875 -2.9375q0.984375 -1.359375 2.78125 -2.125q1.796875 -0.765625 4.03125 -0.765625q3.375 0 5.359375 1.703125q2.0 1.6875 2.0 4.765625l0 7.9375q0.015625 2.609375 0.71875 3.953125l0 0.28125l-4.9375 0zm-4.046875 -3.40625q1.09375 0 2.0 -0.46875q0.921875 -0.484375 1.359375 -1.296875l0 -3.15625l-1.828125 0q-3.671875 0 -3.90625 2.546875l-0.015625 0.28125q0 0.921875 0.640625 1.515625q0.640625 0.578125 1.75 0.578125zm17.877228 -19.40625l0 4.5l3.125 0l0 3.59375l-3.125 0l0 9.140625q0 1.015625 0.390625 1.453125q0.390625 0.4375 1.484375 0.4375q0.8125 0 1.4375 -0.125l0 3.71875q-1.4375 0.4375 -2.953125 0.4375q-5.15625 0 -5.25 -5.203125l0 -9.859375l-2.671875 0l0 -3.59375l2.671875 0l0 -4.5l4.890625 0zm14.288162 23.15625q-4.0312653 0 -6.5625153 -2.46875q-2.53125 -2.484375 -2.53125 -6.59375l0 -0.46875q0 -2.765625 1.0625 -4.9375q1.0625 -2.171875 3.015625 -3.34375q1.96875 -1.171875 4.46875 -1.171875q3.7500153 0 5.9062653 2.375q2.15625 2.359375 2.15625 6.703125l0 2.0l-11.656265 0q0.234375 1.796875 1.421875 2.875q1.203125 1.078125 3.0312653 1.078125q2.828125 0 4.421875 -2.046875l2.40625 2.6875q-1.109375 1.5625 -2.984375 2.4375q-1.875 0.875 -4.15625 0.875zm-0.56251526 -15.03125q-1.453125 0 -2.359375 0.984375q-0.90625 0.984375 -1.15625 2.8125l6.7968903 0l0 -0.390625q-0.03125 -1.625 -0.890625 -2.515625q-0.84375 -0.890625 -2.3906403 -0.890625z" fill-rule="nonzero"/><path fill="#000000" fill-opacity="0.0" d="m548.4704 281.61154l163.81104 0l0 61.417328l-163.81104 0z" fill-rule="evenodd"/><path fill="#000000" d="m574.50165 313.21967l-9.75 0l0 6.59375l11.4375 0l0 4.078125l-16.515625 0l0 -24.640625l16.484375 0l0 4.109375l-11.40625 0l0 5.875l9.75 0l0 3.984375zm10.757141 4.703125l3.40625 -12.34375l5.109375 0l-6.1875 18.3125l-4.671875 0l-6.171875 -18.3125l5.109375 0l3.40625 12.34375zm18.872375 6.3125q-4.03125 0 -6.5625 -2.46875q-2.53125 -2.484375 -2.53125 -6.59375l0 -0.46875q0 -2.765625 1.0625 -4.9375q1.0625 -2.171875 3.015625 -3.34375q1.96875 -1.171875 4.46875 -1.171875q3.75 0 5.90625 2.375q2.15625 2.359375 2.15625 6.703125l0 2.0l-11.65625 0q0.234375 1.796875 1.421875 2.875q1.203125 1.078125 3.03125 1.078125q2.828125 0 4.421875 -2.046875l2.40625 2.6875q-1.109375 1.5625 -2.984375 2.4375q-1.875 0.875 -4.15625 0.875zm-0.5625 -15.03125q-1.453125 0 -2.359375 0.984375q-0.90625 0.984375 -1.15625 2.8125l6.796875 0l0 -0.390625q-0.03125 -1.625 -0.890625 -2.515625q-0.84375 -0.890625 -2.390625 -0.890625zm15.357605 -3.625l0.15625 2.125q1.96875 -2.453125 5.265625 -2.453125q2.90625 0 4.328125 1.703125q1.421875 1.703125 1.453125 5.109375l0 11.828125l-4.890625 0l0 -11.703125q0 -1.5625 -0.671875 -2.265625q-0.671875 -0.703125 -2.25 -0.703125q-2.0625 0 -3.09375 1.765625l0 12.90625l-4.890625 0l0 -18.3125l4.59375 0zm20.76892 -4.5l0 4.5l3.125 0l0 3.59375l-3.125 0l0 9.140625q0 1.015625 0.390625 1.453125q0.390625 0.4375 1.484375 0.4375q0.8125 0 1.4375 -0.125l0 3.71875q-1.4375 0.4375 -2.953125 0.4375q-5.15625 0 -5.25 -5.203125l0 -9.859375l-2.671875 0l0 -3.59375l2.671875 0l0 -4.5l4.890625 0z" fill-rule="nonzero"/><path fill="#d9ead3" d="m592.4982 434.3701l212.53546 0l0 138.74014l-212.53546 0z" fill-rule="evenodd"/><path stroke="#000000" stroke-width="1.0" stroke-linejoin="round" stroke-linecap="butt" d="m592.4982 434.3701l212.53546 0l0 138.74014l-212.53546 0z" fill-rule="evenodd"/><path fill="#434343" d="m663.4343 503.76016q2.71875 0.859375 4.25 2.875q1.546875 2.015625 1.546875 4.96875q0 4.1718445 -3.25 6.4218445q-3.234375 2.234375 -9.4375 2.234375l-16.40625 0l0 -31.734344l15.5 0q5.796875 0 8.90625 2.234375q3.109375 2.21875 3.109375 6.015625q0 2.3125 -1.109375 4.125q-1.109375 1.8125 -3.109375 2.859375zm-16.0 -9.703125l0 7.484375l7.296875 0q2.71875 0 4.125 -0.953125q1.40625 -0.953125 1.40625 -2.8125q0 -1.859375 -1.40625 -2.78125q-1.40625 -0.9375 -4.125 -0.9375l-7.296875 0zm8.5625 20.671844q2.90625 0 4.375 -0.953125q1.46875 -0.953125 1.46875 -2.9374695q0 -3.953125 -5.84375 -3.953125l-8.5625 0l0 7.8437195l8.5625 0zm18.81665 -26.203094l7.34375 0l0 25.74997l15.90625 0l0 5.984375l-23.25 0l0 -31.734344zm38.306213 32.09372q-3.859375 0 -6.921875 -1.609375q-3.0625 -1.609375 -4.78125 -4.453125q-1.71875 -2.8593445 -1.71875 -6.4843445q0 -3.625 1.71875 -6.484375q1.71875 -2.859375 4.78125 -4.46875q3.0625 -1.609375 6.921875 -1.609375q3.84375 0 6.875 1.609375q3.046875 1.609375 4.765625 4.46875q1.71875 2.859375 1.71875 6.484375q0 3.625 -1.71875 6.4843445q-1.71875 2.84375 -4.765625 4.453125q-3.03125 1.609375 -6.875 1.609375zm0 -5.796875q2.71875 0 4.453125 -1.828125q1.75 -1.8437195 1.75 -4.9218445q0 -3.09375 -1.75 -4.921875q-1.734375 -1.84375 -4.453125 -1.84375q-2.734375 0 -4.5 1.84375q-1.765625 1.828125 -1.765625 4.921875q0 3.078125 1.765625 4.9218445q1.765625 1.828125 4.5 1.828125zm33.768066 5.984375q-4.859375 0 -8.78125 -2.109375q-3.921875 -2.109375 -6.171875 -5.84375q-2.234375 -3.7499695 -2.234375 -8.4530945q0 -4.71875 2.234375 -8.453125q2.25 -3.75 6.171875 -5.859375q3.921875 -2.109375 8.828125 -2.109375q4.125 0 7.453125 1.453125q3.328125 1.453125 5.59375 4.171875l-4.71875 4.359375q-3.21875 -3.71875 -7.96875 -3.71875q-2.953125 0 -5.265625 1.296875q-2.3125 1.28125 -3.609375 3.59375q-1.28125 2.3125 -1.28125 5.265625q0 2.9375 1.28125 5.25q1.296875 2.3125 3.609375 3.6093445q2.3125 1.28125 5.265625 1.28125q4.75 0 7.96875 -3.7499695l4.71875 4.3437195q-2.265625 2.765625 -5.625 4.21875q-3.34375 1.453125 -7.46875 1.453125z" fill-rule="nonzero"/><path fill="#000000" fill-opacity="0.0" d="m261.23358 436.53806c0 106.20468 109.38583 195.33853 218.77164 212.4094c109.38583 17.070862 218.77164 -37.921265 218.77164 -75.84247" fill-rule="evenodd"/><path stroke="#000000" stroke-width="8.0" stroke-linejoin="round" stroke-linecap="butt" stroke-dasharray="8.0,24.0" d="m261.23358 436.53806c0 106.20468 109.38583 195.33853 218.77167 212.4094c54.692932 8.5354 109.3858 -0.94488525 150.40552 -17.299194c10.254944 -4.088562 19.655273 -8.606812 27.987366 -13.380554c2.0830688 -1.1934204 4.099304 -2.402832 6.045471 -3.6254883c0.9730835 -0.6113281 1.9286499 -1.2259521 2.866272 -1.8435669c0.46881104 -0.3088379 0.93310547 -0.61834717 1.3929443 -0.92858887c0.2298584 -0.15515137 0.45861816 -0.31048584 0.68621826 -0.46594238l0.23834229 -0.16381836" fill-rule="evenodd"/><path fill="#000000" stroke="#000000" stroke-width="8.0" stroke-linecap="butt" d="m680.1256 619.2649l11.549011 -36.868225l-32.54547 20.819153z" fill-rule="evenodd"/><path fill="#000000" fill-opacity="0.0" d="m367.50128 367.16797c165.63782 0 331.27557 33.606323 331.27557 67.212616" fill-rule="evenodd"/><path stroke="#000000" stroke-width="8.0" stroke-linejoin="round" stroke-linecap="butt" d="m415.49252 368.08505l2.3030396 0.087646484c1.2806702 0.05065918 2.5603638 0.10308838 3.8388977 0.15740967c2.557129 0.10858154 5.109894 0.2244873 7.6575317 0.34753418c20.381195 0.9845581 40.438904 2.4285889 59.84958 4.2664185c38.82138 3.6756897 75.054596 8.926666 106.111725 15.227844c62.114136 12.602386 103.52362 29.405518 103.52362 46.20868" fill-rule="evenodd"/><path fill="#000000" stroke="#000000" stroke-width="8.0" stroke-linecap="butt" d="m415.74503 354.87363l-36.55063 12.517792l36.045685 13.90509z" fill-rule="evenodd"/><path fill="#000000" fill-opacity="0.0" d="m643.0586 343.02756l212.5354 0l0 61.417328l-212.5354 0z" fill-rule="evenodd"/><path fill="#000000" d="m667.02734 378.8388q0 -1.4375 -1.015625 -2.203125q-1.0 -0.765625 -3.640625 -1.625q-2.640625 -0.859375 -4.1875 -1.6875q-4.203125 -2.265625 -4.203125 -6.109375q0 -2.0 1.125 -3.5625q1.140625 -1.5625 3.234375 -2.4375q2.109375 -0.890625 4.734375 -0.890625q2.640625 0 4.703125 0.96875q2.0625 0.953125 3.203125 2.703125q1.140625 1.734375 1.140625 3.953125l-5.0625 0q0 -1.6875 -1.078125 -2.625q-1.0625 -0.953125 -2.984375 -0.953125q-1.875 0 -2.90625 0.796875q-1.03125 0.78125 -1.03125 2.0625q0 1.203125 1.203125 2.015625q1.21875 0.8125 3.578125 1.53125q4.328125 1.296875 6.296875 3.234375q1.984375 1.921875 1.984375 4.796875q0 3.203125 -2.421875 5.03125q-2.40625 1.8125 -6.5 1.8125q-2.84375 0 -5.1875 -1.046875q-2.328125 -1.046875 -3.5625 -2.84375q-1.21875 -1.8125 -1.21875 -4.203125l5.09375 0q0 4.078125 4.875 4.078125q1.8125 0 2.8125 -0.734375q1.015625 -0.734375 1.015625 -2.0625zm14.070435 -16.34375l0 4.5l3.125 0l0 3.59375l-3.125 0l0 9.140625q0 1.015625 0.390625 1.453125q0.390625 0.4375 1.484375 0.4375q0.8125 0 1.4375 -0.125l0 3.71875q-1.4375 0.4375 -2.953125 0.4375q-5.15625 0 -5.25 -5.203125l0 -9.859375l-2.671875 0l0 -3.59375l2.671875 0l0 -4.5l4.890625 0zm16.460022 22.8125q-0.328125 -0.65625 -0.484375 -1.640625q-1.78125 1.984375 -4.625 1.984375q-2.6875 0 -4.453125 -1.5625q-1.765625 -1.5625 -1.765625 -3.921875q0 -2.921875 2.15625 -4.46875q2.15625 -1.5625 6.234375 -1.578125l2.25 0l0 -1.046875q0 -1.265625 -0.65625 -2.03125q-0.65625 -0.765625 -2.046875 -0.765625q-1.234375 0 -1.9375 0.59375q-0.703125 0.59375 -0.703125 1.625l-4.890625 0q0 -1.59375 0.96875 -2.9375q0.984375 -1.359375 2.78125 -2.125q1.796875 -0.765625 4.03125 -0.765625q3.375 0 5.359375 1.703125q2.0 1.6875 2.0 4.765625l0 7.9375q0.015625 2.609375 0.71875 3.953125l0 0.28125l-4.9375 0zm-4.046875 -3.40625q1.09375 0 2.0 -0.46875q0.921875 -0.484375 1.359375 -1.296875l0 -3.15625l-1.828125 0q-3.671875 0 -3.90625 2.546875l-0.015625 0.28125q0 0.921875 0.640625 1.515625q0.640625 0.578125 1.75 0.578125zm17.877197 -19.40625l0 4.5l3.125 0l0 3.59375l-3.125 0l0 9.140625q0 1.015625 0.390625 1.453125q0.390625 0.4375 1.484375 0.4375q0.8125 0 1.4375 -0.125l0 3.71875q-1.4375 0.4375 -2.953125 0.4375q-5.15625 0 -5.25 -5.203125l0 -9.859375l-2.671875 0l0 -3.59375l2.671875 0l0 -4.5l4.890625 0zm14.288147 23.15625q-4.03125 0 -6.5625 -2.46875q-2.53125 -2.484375 -2.53125 -6.59375l0 -0.46875q0 -2.765625 1.0625 -4.9375q1.0625 -2.171875 3.015625 -3.34375q1.96875 -1.171875 4.46875 -1.171875q3.75 0 5.90625 2.375q2.15625 2.359375 2.15625 6.703125l0 2.0l-11.65625 0q0.234375 1.796875 1.421875 2.875q1.203125 1.078125 3.03125 1.078125q2.828125 0 4.421875 -2.046875l2.40625 2.6875q-1.109375 1.5625 -2.984375 2.4375q-1.875 0.875 -4.15625 0.875zm-0.5625 -15.03125q-1.453125 0 -2.359375 0.984375q-0.90625 0.984375 -1.15625 2.8125l6.796875 0l0 -0.390625q-0.03125 -1.625 -0.890625 -2.515625q-0.84375 -0.890625 -2.390625 -0.890625z" fill-rule="nonzero"/><path fill="#000000" fill-opacity="0.0" d="m418.5295 573.1102l138.74014 0l0 61.41736l-138.74014 0z" fill-rule="evenodd"/><path fill="#000000" d="m444.56076 604.7184l-9.75 0l0 6.59375l11.4375 0l0 4.078125l-16.515625 0l0 -24.640625l16.484375 0l0 4.109375l-11.40625 0l0 5.875l9.75 0l0 3.984375zm10.757141 4.703125l3.40625 -12.34375l5.109375 0l-6.1875 18.3125l-4.671875 0l-6.171875 -18.3125l5.109375 0l3.40625 12.34375zm18.872345 6.3125q-4.03125 0 -6.5625 -2.46875q-2.53125 -2.484375 -2.53125 -6.59375l0 -0.46875q0 -2.765625 1.0625 -4.9375q1.0625 -2.171875 3.015625 -3.34375q1.96875 -1.171875 4.46875 -1.171875q3.75 0 5.90625 2.375q2.15625 2.359375 2.15625 6.703125l0 2.0l-11.65625 0q0.234375 1.796875 1.421875 2.875q1.203125 1.078125 3.03125 1.078125q2.828125 0 4.421875 -2.046875l2.40625 2.6875q-1.109375 1.5625 -2.984375 2.4375q-1.875 0.875 -4.15625 0.875zm-0.5625 -15.03125q-1.453125 0 -2.359375 0.984375q-0.90625 0.984375 -1.15625 2.8125l6.796875 0l0 -0.390625q-0.03125 -1.625 -0.890625 -2.515625q-0.84375 -0.890625 -2.390625 -0.890625zm15.357666 -3.625l0.15625 2.125q1.96875 -2.453125 5.265625 -2.453125q2.90625 0 4.328125 1.703125q1.421875 1.703125 1.453125 5.109375l0 11.828125l-4.890625 0l0 -11.703125q0 -1.5625 -0.671875 -2.265625q-0.671875 -0.703125 -2.25 -0.703125q-2.0625 0 -3.09375 1.765625l0 12.90625l-4.890625 0l0 -18.3125l4.59375 0zm20.76889 -4.5l0 4.5l3.1250305 0l0 3.59375l-3.1250305 0l0 9.140625q0 1.015625 0.390625 1.453125q0.390625 0.4375 1.484375 0.4375q0.8125305 0 1.4375305 -0.125l0 3.71875q-1.4375305 0.4375 -2.9531555 0.4375q-5.15625 0 -5.25 -5.203125l0 -9.859375l-2.671875 0l0 -3.59375l2.671875 0l0 -4.5l4.890625 0z" fill-rule="nonzero"/></g></svg>